<?xml version="1.0" standalone="no"?>
<!DOCTYPE svg PUBLIC "-//W3C//DTD SVG 20010904//EN"
 "http://www.w3.org/TR/2001/REC-SVG-20010904/DTD/svg10.dtd">
<svg version="1.0" xmlns="http://www.w3.org/2000/svg"
 width="516.000000pt" height="150.000000pt" viewBox="0 0 516.000000 150.000000"
 preserveAspectRatio="xMidYMid meet">

<g transform="translate(0.000000,150.000000) scale(0.100000,-0.100000)"
fill="#000000" stroke="none">
<path d="M1630 1350 c-140 -3 -256 -7 -257 -8 -2 -1 -3 -6 -3 -12 0 -6 97 -10
270 -10 l270 0 0 -514 c0 -505 4 -606 22 -606 5 0 6 5 3 10 -3 6 -1 10 5 10 6
0 9 4 6 9 -4 5 -1 11 4 13 7 2 11 183 13 545 1 297 -1 539 -5 536 -5 -2 -8 0
-8 5 0 9 -46 33 -58 30 -4 -1 -122 -5 -262 -8z"/>
<path d="M3636 1345 c-17 -13 0 -15 160 -17 l179 -3 3 -393 2 -393 26 -9 c15
-6 143 -9 310 -8 240 3 286 5 294 18 13 21 12 27 -5 27 -8 0 -15 -4 -15 -8 0
-5 -11 -4 -24 1 -13 5 -26 7 -28 4 -3 -2 -40 -6 -84 -9 -43 -3 -108 -9 -142
-13 -36 -5 -84 -5 -110 0 -26 5 -57 9 -69 10 -15 0 -20 4 -16 12 5 7 2 7 -8
-1 -12 -10 -22 -8 -50 12 -20 13 -37 29 -38 37 -1 7 -5 172 -7 367 -3 219 -9
360 -15 367 -16 19 -338 19 -363 -1z"/>
<path d="M2030 1335 c-11 -13 39 -15 467 -15 277 0 514 -4 563 -11 101 -12
189 -49 229 -95 69 -78 99 -264 67 -418 -21 -101 -20 -109 5 -62 65 122 64
359 -3 458 -62 91 -98 117 -193 142 -90 23 -1116 24 -1135 1z"/>
<path d="M4860 1340 l-185 -6 178 -2 178 -2 -3 -474 c-2 -360 0 -472 9 -469 6
3 10 13 8 24 -2 10 0 19 4 19 12 0 13 31 17 476 3 331 1 423 -8 430 -7 5 -96
7 -198 4z"/>
<path d="M479 1320 l274 -5 123 -260 c68 -143 131 -277 141 -297 l18 -37 22
50 c12 27 18 47 12 44 -5 -4 -9 -1 -9 6 0 7 -3 9 -7 6 -3 -4 -21 24 -38 61
-20 42 -46 79 -69 98 -30 24 -38 38 -43 74 -3 25 -11 52 -18 60 -7 8 -15 33
-18 54 -4 22 -12 43 -19 48 -7 4 -10 8 -6 8 4 0 -5 21 -20 48 l-28 47 -295 0
-294 1 274 -6z"/>
<path d="M3580 913 c0 -219 5 -431 10 -472 12 -92 46 -153 100 -181 21 -11 43
-26 47 -33 17 -26 64 -47 132 -58 66 -10 73 -9 101 11 34 24 39 38 13 36 -24
-1 -23 28 1 32 10 2 22 -2 27 -10 6 -10 9 -10 9 0 0 6 4 12 10 12 13 0 8 -42
-7 -58 -17 -18 -16 -29 1 -29 8 0 12 6 10 12 -3 7 2 18 11 25 8 7 15 18 15 25
0 17 28 27 36 13 4 -6 0 -16 -9 -23 -21 -15 -22 -36 -2 -29 9 4 15 0 15 -10 0
-18 25 -22 35 -6 3 5 -1 10 -10 10 -13 0 -14 4 -4 22 9 16 9 23 0 26 -16 5
-14 22 4 22 8 0 15 -4 15 -9 0 -15 38 -20 44 -5 4 9 -2 13 -16 11 -11 -1 -23
4 -25 11 -3 6 1 12 9 12 15 0 41 27 51 54 4 9 12 14 18 10 10 -6 28 11 29 26
0 3 -17 6 -37 7 -20 1 -48 4 -60 8 -31 7 -43 -21 -17 -40 18 -13 18 -14 2 -20
-10 -4 -18 -12 -18 -17 0 -6 6 -6 14 1 8 7 17 8 20 3 10 -16 -32 -40 -66 -38
-18 2 -41 4 -50 5 -10 0 -18 6 -18 11 0 6 8 10 17 8 10 -2 19 4 21 14 2 11 -3
18 -12 18 -18 0 -21 15 -6 25 5 3 17 -3 27 -15 25 -29 33 -25 22 12 -12 45
-12 45 16 52 14 4 25 14 25 22 0 12 6 15 25 10 18 -5 25 -2 25 8 0 17 -17 30
-22 17 -1 -5 -14 -11 -28 -13 -19 -2 -25 1 -25 17 0 11 -5 26 -12 33 -15 16
-50 16 -56 0 -3 -9 -11 -7 -25 7 -12 11 -28 26 -37 33 -13 11 -15 62 -15 397
l0 385 -190 0 -190 0 0 -397z m260 -63 c0 -5 -4 -10 -10 -10 -5 0 -10 5 -10
10 0 6 5 10 10 10 6 0 10 -4 10 -10z m-160 -10 c0 -5 -4 -10 -10 -10 -5 0 -10
5 -10 10 0 6 5 10 10 10 6 0 10 -4 10 -10z m220 -14 c0 -11 -19 -15 -25 -6 -3
5 1 10 9 10 9 0 16 -2 16 -4z m-60 -106 c0 -5 -4 -10 -10 -10 -5 0 -10 5 -10
10 0 6 5 10 10 10 6 0 10 -4 10 -10z m-30 -40 c0 -5 -7 -10 -15 -10 -8 0 -15
5 -15 10 0 6 7 10 15 10 8 0 15 -4 15 -10z m-113 -156 c-9 -9 -28 6 -21 18 4
6 10 6 17 -1 6 -6 8 -13 4 -17z m83 -4 c0 -5 -4 -10 -10 -10 -5 0 -10 5 -10
10 0 6 5 10 10 10 6 0 10 -4 10 -10z m30 -40 c0 -5 -7 -10 -15 -10 -8 0 -15 5
-15 10 0 6 7 10 15 10 8 0 15 -4 15 -10z m268 -36 c2 -16 -1 -23 -8 -19 -6 3
-8 10 -5 15 3 5 1 11 -5 15 -6 4 -8 11 -4 16 8 14 17 3 22 -27z m-103 -62
c-11 -11 -27 17 -20 35 6 16 8 16 16 -6 5 -13 7 -26 4 -29z m-150 28 c3 -5 -1
-10 -9 -10 -9 0 -16 5 -16 10 0 6 4 10 9 10 6 0 13 -4 16 -10z m65 -66 c0 -9
-5 -14 -12 -12 -18 6 -21 28 -4 28 9 0 16 -7 16 -16z m284 10 c15 -6 23 -34
10 -34 -7 0 -34 27 -34 34 0 8 5 7 24 0z m-404 -32 c0 -14 -11 -21 -26 -15 -8
3 -11 9 -8 14 7 11 34 12 34 1z m-50 -42 c0 -5 -4 -10 -10 -10 -5 0 -10 5 -10
10 0 6 5 10 10 10 6 0 10 -4 10 -10z m235 -10 c-3 -5 -10 -10 -16 -10 -5 0 -9
5 -9 10 0 6 7 10 16 10 8 0 12 -4 9 -10z m-65 -20 c0 -5 -7 -10 -16 -10 -8 0
-12 5 -9 10 3 6 10 10 16 10 5 0 9 -4 9 -10z m50 0 c12 -8 13 -11 1 -19 -9 -6
-10 -11 -2 -15 12 -8 15 -26 4 -26 -8 0 -33 47 -33 62 0 11 12 10 30 -2z m-75
-40 c3 -5 -1 -10 -9 -10 -9 0 -16 5 -16 10 0 6 4 10 9 10 6 0 13 -4 16 -10z"/>
<path d="M4647 1303 c-4 -3 -7 -72 -7 -152 0 -118 3 -151 16 -169 15 -22 13
-58 -3 -49 -5 3 -9 -29 -11 -70 -2 -48 1 -73 7 -69 6 4 15 -3 22 -15 8 -16 8
-23 -1 -29 -9 -5 -9 -9 -1 -14 17 -11 13 -46 -6 -46 -15 0 -15 -1 0 -18 22
-24 21 -35 -3 -57 -11 -10 -20 -29 -20 -42 0 -24 15 -31 23 -10 4 7 8 3 12
-10 6 -18 12 -21 36 -16 22 4 29 2 29 -11 0 -9 -8 -16 -20 -16 -11 0 -20 -7
-20 -15 0 -8 5 -15 10 -15 6 0 10 5 10 10 0 18 15 11 25 -12 12 -27 35 -35 35
-13 0 15 2 15 16 4 10 -8 12 -15 5 -17 -6 -2 -11 -11 -11 -19 0 -15 2 -15 18
-1 9 9 32 19 50 23 32 7 41 18 22 30 -5 3 -11 16 -11 28 -1 20 -2 20 -6 2 -10
-44 -12 -46 -33 -35 -17 9 -19 14 -9 26 8 10 8 14 0 14 -6 0 -11 9 -11 21 0
11 4 18 9 15 9 -6 21 81 12 89 -6 7 -41 -15 -41 -25 0 -6 3 -9 8 -8 4 2 7 -1
8 -7 0 -5 -8 -8 -19 -7 -11 2 -23 -2 -28 -9 -4 -8 -11 -11 -14 -8 -9 9 10 51
34 77 22 22 22 22 1 22 -11 0 -20 -7 -20 -15 0 -8 -5 -15 -11 -15 -6 0 -9 9
-6 19 3 12 -1 22 -10 25 -8 3 -12 10 -8 15 3 5 -4 12 -15 16 -24 8 -26 21 -4
29 30 12 42 6 48 -24 7 -40 21 -38 21 3 0 27 4 32 23 31 25 -1 30 21 6 30 -13
5 -14 9 -4 21 7 9 20 14 29 13 8 -2 16 3 16 10 0 6 4 12 8 13 12 0 47 -47 47
-64 0 -22 21 -32 31 -16 11 18 15 11 23 -33 6 -31 4 -38 -9 -38 -8 0 -15 -5
-15 -11 0 -6 -9 -8 -20 -5 -11 3 -28 8 -39 11 -11 3 -21 0 -24 -9 -4 -9 0 -12
12 -9 11 3 21 -2 24 -10 6 -17 -13 -67 -25 -67 -5 0 -8 -4 -8 -10 0 -5 8 -6
17 -3 12 5 15 2 10 -10 -4 -12 -2 -14 10 -10 12 5 14 1 9 -25 -7 -30 6 -52 19
-32 11 17 24 1 18 -21 -4 -16 -2 -20 8 -17 8 3 13 13 11 23 -3 13 1 16 16 13
12 -3 23 2 30 13 15 23 16 59 2 59 -15 0 -12 37 4 43 10 4 12 19 8 59 -3 29
-9 54 -13 56 -12 5 -11 32 1 32 6 0 10 97 10 270 l0 270 -178 0 c-98 0 -182
-3 -185 -7z m203 -317 c0 -16 -18 -31 -27 -22 -8 8 5 36 17 36 5 0 10 -6 10
-14z m90 -26 c0 -5 -4 -10 -10 -10 -5 0 -10 5 -10 10 0 6 5 10 10 10 6 0 10
-4 10 -10z m-210 -45 c0 -8 -4 -15 -10 -15 -5 0 -10 7 -10 15 0 8 5 15 10 15
6 0 10 -7 10 -15z m104 -27 c5 -21 3 -28 -9 -28 -11 0 -15 11 -15 37 0 41 13
35 24 -9z m46 21 c0 -5 -7 -9 -15 -9 -15 0 -20 12 -9 23 8 8 24 -1 24 -14z
m50 0 c0 -5 -4 -9 -10 -9 -5 0 -10 7 -10 16 0 8 5 12 10 9 6 -3 10 -10 10 -16z
m50 -29 c0 -5 -4 -10 -10 -10 -5 0 -10 5 -10 10 0 6 5 10 10 10 6 0 10 -4 10
-10z m-66 -31 c-3 -5 -10 -7 -15 -3 -5 3 -7 10 -3 15 3 5 10 7 15 3 5 -3 7
-10 3 -15z m-114 -15 c0 -10 -28 -34 -39 -34 -14 0 -14 8 2 25 12 14 37 20 37
9z m-67 -32 c10 -10 14 -21 11 -25 -9 -9 -44 16 -44 30 0 18 14 16 33 -5z m-5
-147 c19 -21 20 -26 7 -31 -16 -6 -57 35 -48 48 8 14 19 9 41 -17z m200 -26
c-2 -6 -8 -10 -13 -10 -5 0 -11 4 -13 10 -2 6 4 11 13 11 9 0 15 -5 13 -11z
m46 -80 c-10 -17 -21 -8 -32 28 -16 51 -3 63 19 18 10 -21 16 -42 13 -46z
m-244 20 c0 -5 -7 -9 -15 -9 -9 0 -15 9 -15 21 0 18 2 19 15 9 8 -7 15 -16 15
-21z m36 -26 c-10 -10 -19 5 -10 18 6 11 8 11 12 0 2 -7 1 -15 -2 -18z m160
-10 c-10 -10 -19 5 -10 18 6 11 8 11 12 0 2 -7 1 -15 -2 -18z m-126 -30 c0
-14 -10 -16 -34 -7 -25 9 -19 22 9 20 14 0 25 -7 25 -13z"/>
<path d="M180 1005 c0 -190 4 -295 10 -295 6 0 10 -9 10 -21 0 -12 -4 -17 -11
-14 -7 5 -10 -22 -8 -88 2 -74 6 -94 16 -90 7 3 13 11 13 19 0 8 10 14 21 14
17 0 20 -5 16 -20 -4 -17 -2 -20 16 -15 35 10 60 45 45 62 -14 17 -20 123 -7
123 5 0 9 -10 10 -22 0 -13 3 -17 6 -10 8 20 23 14 23 -10 1 -13 10 -34 21
-47 24 -29 42 -17 42 29 0 35 0 35 32 14 15 -10 25 -12 25 -5 0 6 9 11 20 11
11 0 20 -4 20 -10 0 -5 7 -7 15 -4 8 4 15 16 15 29 0 13 -7 25 -15 29 -8 3
-15 10 -15 16 0 5 7 10 15 10 12 0 15 15 15 74 0 41 4 77 8 80 5 3 19 -17 32
-44 15 -32 30 -50 41 -50 20 0 31 -23 22 -46 -5 -13 -2 -15 15 -9 13 4 22 2
22 -4 0 -6 9 -11 20 -11 11 0 20 -7 20 -15 0 -18 -14 -19 -41 -5 -15 8 -19 7
-19 -4 0 -10 6 -13 17 -9 13 5 15 2 11 -15 -4 -13 0 -23 9 -26 9 -4 13 -14 10
-26 -3 -11 -1 -20 4 -20 5 0 9 5 9 10 0 6 8 10 19 10 23 0 43 23 39 46 -2 9 2
19 8 21 13 4 27 -39 15 -47 -15 -10 -8 -40 11 -46 23 -7 24 -33 1 -32 -10 0
-25 -3 -35 -6 -11 -5 -18 -1 -23 13 -3 12 -11 21 -16 21 -12 0 -11 -17 2 -25
6 -4 8 -12 6 -19 -3 -6 0 -24 7 -40 l11 -28 14 36 c11 26 20 35 35 32 11 -1
22 -8 24 -14 2 -6 9 -9 17 -6 8 3 11 12 8 21 -4 11 -1 14 12 12 26 -5 29 -25
8 -46 -21 -21 -19 -52 3 -54 8 -1 20 -2 26 -3 16 -1 26 -50 20 -95 l-5 -33 30
16 c29 14 32 14 48 -4 22 -24 35 -26 35 -5 0 19 14 19 30 0 7 -8 19 -15 26
-15 8 0 14 -7 14 -16 0 -11 5 -14 17 -10 9 4 20 1 25 -6 5 -8 8 -2 8 19 0 17
6 34 13 37 6 3 2 3 -10 0 -19 -4 -23 -1 -23 20 0 16 -6 26 -15 26 -17 0 -19
18 -5 54 8 23 7 26 -10 26 -11 0 -20 -4 -20 -10 0 -5 -9 -10 -20 -10 -30 0
-26 38 5 50 14 5 31 7 39 4 8 -3 17 -1 21 5 8 14 75 14 75 1 0 -5 -11 -10 -24
-10 -15 0 -26 -7 -29 -20 -7 -25 -1 -25 48 5 46 29 65 31 65 10 0 -8 -6 -15
-13 -15 -7 0 -29 -13 -47 -30 -18 -16 -42 -30 -52 -30 -10 0 -18 -5 -18 -11 0
-5 5 -7 10 -4 6 3 10 1 10 -6 0 -7 6 -4 14 7 15 19 15 19 30 -1 18 -23 20 -35
6 -35 -12 0 -13 -47 -1 -54 5 -4 7 3 4 14 -4 16 0 20 21 20 21 0 31 10 56 60
22 44 29 67 24 87 -6 22 -4 25 10 20 28 -11 42 33 22 71 -9 18 -12 33 -6 37 5
3 16 -7 24 -22 l14 -28 8 30 c4 17 10 32 14 35 4 3 35 60 69 128 34 67 66 122
71 122 6 0 10 -96 10 -265 0 -170 4 -265 10 -265 6 0 10 -9 10 -20 0 -11 -4
-20 -10 -20 -6 0 -10 -30 -10 -70 0 -63 2 -70 20 -70 11 0 20 7 20 15 0 18 16
20 23 3 3 -9 9 -7 19 6 11 14 17 16 23 6 4 -7 2 -16 -6 -21 -8 -5 39 -9 119
-9 80 0 131 4 127 9 -3 5 -1 12 4 15 17 11 7 227 -12 265 -21 42 -21 43 1 39
16 -3 17 16 20 260 2 229 1 262 -13 262 -8 0 -15 7 -15 15 0 8 7 15 15 15 13
0 15 21 15 130 l0 131 -145 -2 c-90 -1 -143 -5 -142 -11 1 -6 -4 -13 -10 -15
-7 -3 -13 3 -13 11 0 15 -16 16 -131 14 l-131 -3 -73 -155 c-42 -87 -72 -163
-69 -172 3 -11 0 -18 -9 -18 -16 0 -123 -226 -120 -252 3 -19 -5 -23 -22 -10
-6 4 -35 58 -65 120 -29 61 -60 112 -67 112 -8 0 -13 12 -13 29 0 29 -15 64
-104 254 l-46 97 -128 0 c-79 0 -132 -4 -139 -11 -8 -8 -13 -8 -17 0 -5 7 -56
11 -142 11 l-134 0 0 -295z m300 217 c0 -13 -12 -22 -22 -16 -10 6 -1 24 13
24 5 0 9 -4 9 -8z m1201 -15 c-13 -13 -26 -3 -16 12 3 6 11 8 17 5 6 -4 6 -10
-1 -17z m147 -35 c2 -7 -3 -12 -12 -12 -9 0 -16 7 -16 16 0 17 22 14 28 -4z
m-410 -10 c2 -7 -3 -12 -12 -12 -9 0 -16 7 -16 16 0 17 22 14 28 -4z m-774
-43 c-10 -16 -24 -9 -24 12 0 18 2 19 15 9 8 -7 12 -16 9 -21z m155 9 c12 -19
11 -23 -5 -35 -26 -19 -36 -12 -40 25 -3 25 0 32 14 32 9 0 23 -10 31 -22z
m671 2 c0 -5 -7 -10 -15 -10 -8 0 -15 5 -15 10 0 6 7 10 15 10 8 0 15 -4 15
-10z m-780 -10 c0 -5 -4 -10 -9 -10 -6 0 -13 5 -16 10 -3 6 1 10 9 10 9 0 16
-4 16 -10z m48 -7 c-4 -22 -22 -20 -26 1 -2 10 3 16 13 16 10 0 15 -7 13 -17z
m-228 -8 c0 -8 -4 -15 -10 -15 -5 0 -10 7 -10 15 0 8 5 15 10 15 6 0 10 -7 10
-15z m780 -5 c0 -5 -4 -10 -10 -10 -5 0 -10 5 -10 10 0 6 5 10 10 10 6 0 10
-4 10 -10z m445 1 c3 -5 1 -12 -5 -16 -5 -3 -10 1 -10 9 0 18 6 21 15 7z
m-1135 -31 c0 -5 -4 -10 -10 -10 -5 0 -10 5 -10 10 0 6 5 10 10 10 6 0 10 -4
10 -10z m47 -26 c-9 -9 -28 6 -21 18 4 6 10 6 17 -1 6 -6 8 -13 4 -17z m1023
6 c0 -5 -4 -10 -9 -10 -6 0 -13 5 -16 10 -3 6 1 10 9 10 9 0 16 -4 16 -10z
m-814 -35 c-3 -8 -1 -15 4 -15 6 0 10 -4 10 -10 0 -5 -7 -10 -15 -10 -8 0 -15
4 -15 9 0 5 -3 16 -6 25 -4 11 -1 16 11 16 11 0 15 -5 11 -15z m884 -4 c0 -12
-20 -25 -27 -18 -7 7 6 27 18 27 5 0 9 -4 9 -9z m-1380 -56 c0 -8 -4 -15 -10
-15 -5 0 -10 7 -10 15 0 8 5 15 10 15 6 0 10 -7 10 -15z m435 -5 c-3 -5 -10
-10 -16 -10 -5 0 -9 5 -9 10 0 6 7 10 16 10 8 0 12 -4 9 -10z m59 -11 c-3 -5
-10 -7 -15 -3 -5 3 -7 10 -3 15 3 5 10 7 15 3 5 -3 7 -10 3 -15z m896 -19 c0
-5 -4 -10 -10 -10 -5 0 -10 5 -10 10 0 6 5 10 10 10 6 0 10 -4 10 -10z m-870
-30 c0 -11 0 -22 0 -25 0 -3 -3 -6 -6 -7 -4 -2 -8 9 -10 25 -1 15 2 27 7 27 5
0 9 -9 9 -20z m-80 -16 c0 -17 -22 -14 -28 4 -2 7 3 12 12 12 9 0 16 -7 16
-16z m-180 -9 c0 -9 -9 -13 -27 -11 -35 5 -35 4 -29 14 9 14 56 12 56 -3z m90
5 c0 -5 -7 -10 -16 -10 -8 0 -12 5 -9 10 3 6 10 10 16 10 5 0 9 -4 9 -10z
m670 0 c0 -5 -4 -10 -10 -10 -5 0 -10 5 -10 10 0 6 5 10 10 10 6 0 10 -4 10
-10z m-170 -15 c0 -8 -4 -15 -10 -15 -5 0 -10 7 -10 15 0 8 5 15 10 15 6 0 10
-7 10 -15z m-990 -9 c0 -17 -14 -29 -23 -20 -8 8 3 34 14 34 5 0 9 -6 9 -14z
m960 -1 c0 -8 -4 -15 -10 -15 -5 0 -10 7 -10 15 0 8 5 15 10 15 6 0 10 -7 10
-15z m100 5 c0 -5 -4 -10 -10 -10 -5 0 -10 5 -10 10 0 6 5 10 10 10 6 0 10 -4
10 -10z m-510 -10 c0 -5 -4 -10 -10 -10 -5 0 -10 5 -10 10 0 6 5 10 10 10 6 0
10 -4 10 -10z m-437 -30 c3 -13 0 -20 -8 -20 -18 0 -26 15 -19 34 7 20 20 13
27 -14z m1237 20 c0 -5 -4 -10 -10 -10 -5 0 -10 5 -10 10 0 6 5 10 10 10 6 0
10 -4 10 -10z m-620 -20 c0 -5 -7 -10 -15 -10 -8 0 -15 5 -15 10 0 6 7 10 15
10 8 0 15 -4 15 -10z m256 -4 c22 -23 17 -42 -6 -21 -19 17 -26 35 -14 35 3 0
12 -6 20 -14z m-526 -32 c0 -8 -4 -12 -10 -9 -5 3 -10 10 -10 16 0 5 5 9 10 9
6 0 10 -7 10 -16z m35 -15 c-4 -5 3 -9 14 -9 12 0 21 -7 21 -15 0 -8 9 -15 20
-15 11 0 20 -7 20 -15 0 -20 -33 -19 -56 3 -24 22 -45 58 -37 66 9 8 24 -4 18
-15z m465 1 c0 -11 -4 -20 -10 -20 -5 0 -10 9 -10 20 0 11 5 20 10 20 6 0 10
-9 10 -20z m105 10 c-3 -5 -10 -10 -16 -10 -5 0 -9 5 -9 10 0 6 7 10 16 10 8
0 12 -4 9 -10z m-850 -10 c3 -5 -1 -10 -9 -10 -9 0 -16 5 -16 10 0 6 4 10 9
10 6 0 13 -4 16 -10z m691 -17 c-10 -10 -19 5 -10 18 6 11 8 11 12 0 2 -7 1
-15 -2 -18z m264 12 c0 -8 -4 -15 -10 -15 -5 0 -10 7 -10 15 0 8 5 15 10 15 6
0 10 -7 10 -15z m-900 -6 c0 -5 4 -8 9 -4 11 6 26 -13 18 -22 -10 -9 -47 8
-47 23 0 8 5 14 10 14 6 0 10 -5 10 -11z m610 -14 c0 -8 -4 -15 -10 -15 -5 0
-10 7 -10 15 0 8 5 15 10 15 6 0 10 -7 10 -15z m-235 -5 c-3 -5 -10 -10 -16
-10 -5 0 -9 5 -9 10 0 6 7 10 16 10 8 0 12 -4 9 -10z m-539 -27 c-10 -10 -19
5 -10 18 6 11 8 11 12 0 2 -7 1 -15 -2 -18z m79 17 c-3 -5 -10 -10 -16 -10 -5
0 -9 5 -9 10 0 6 7 10 16 10 8 0 12 -4 9 -10z m427 -15 c0 -5 -5 -11 -11 -13
-6 -2 -11 4 -11 13 0 9 5 15 11 13 6 -2 11 -8 11 -13z m422 0 c-4 -8 -10 -12
-15 -9 -14 8 -10 24 6 24 9 0 12 -6 9 -15z m56 5 c0 -5 -9 -10 -20 -10 -11 0
-20 5 -20 10 0 6 9 10 20 10 11 0 20 -4 20 -10z m-120 -16 c0 -8 -4 -12 -10
-9 -5 3 -10 10 -10 16 0 5 5 9 10 9 6 0 10 -7 10 -16z m-690 -25 c0 -5 -7 -9
-15 -9 -15 0 -20 12 -9 23 8 8 24 -1 24 -14z m825 11 c-3 -5 -10 -10 -16 -10
-5 0 -9 5 -9 10 0 6 7 10 16 10 8 0 12 -4 9 -10z m-95 -10 c0 -5 -4 -10 -10
-10 -5 0 -10 5 -10 10 0 6 5 10 10 10 6 0 10 -4 10 -10z m-72 -29 c3 -16 -1
-22 -10 -19 -7 3 -15 15 -16 27 -3 16 1 22 10 19 7 -3 15 -15 16 -27z m663 6
c-13 -13 -26 -3 -16 12 3 6 11 8 17 5 6 -4 6 -10 -1 -17z m-921 3 c0 -5 -4
-10 -10 -10 -5 0 -10 5 -10 10 0 6 5 10 10 10 6 0 10 -4 10 -10z m200 -11 c15
-28 4 -38 -15 -13 -17 22 -19 34 -5 34 5 0 14 -9 20 -21z m-132 0 c-2 -6 -8
-10 -13 -10 -5 0 -11 4 -13 10 -2 6 4 11 13 11 9 0 15 -5 13 -11z m-704 -20
c-3 -5 -10 -7 -15 -3 -5 3 -7 10 -3 15 3 5 10 7 15 3 5 -3 7 -10 3 -15z m576
-3 c0 -8 -7 -17 -16 -20 -21 -8 -26 -3 -18 18 8 20 34 21 34 2z m470 -1 c0 -8
-7 -15 -15 -15 -8 0 -15 7 -15 15 0 8 7 15 15 15 8 0 15 -7 15 -15z m-49 -16
c14 -23 10 -35 -17 -47 -14 -7 -22 -17 -19 -22 3 -6 0 -10 -8 -10 -19 0 -28
23 -16 41 5 8 9 24 9 36 0 17 5 22 21 20 11 -2 25 -10 30 -18z m-101 2 c0 -6
-4 -13 -10 -16 -5 -3 -10 1 -10 9 0 9 5 16 10 16 6 0 10 -4 10 -9z m710 -10
c0 -6 -4 -13 -10 -16 -5 -3 -10 1 -10 9 0 9 5 16 10 16 6 0 10 -4 10 -9z
m-1610 -11 c0 -5 -4 -10 -10 -10 -5 0 -10 5 -10 10 0 6 5 10 10 10 6 0 10 -4
10 -10z m830 0 c0 -5 -7 -10 -15 -10 -8 0 -15 5 -15 10 0 6 7 10 15 10 8 0 15
-4 15 -10z m-880 -9 c0 -6 -4 -13 -10 -16 -5 -3 -10 1 -10 9 0 9 5 16 10 16 6
0 10 -4 10 -9z m1100 -1 c0 -5 -4 -10 -9 -10 -6 0 -13 5 -16 10 -3 6 1 10 9
10 9 0 16 -4 16 -10z m-22 -49 c3 -8 -1 -12 -9 -9 -7 2 -15 10 -17 17 -3 8 1
12 9 9 7 -2 15 -10 17 -17z m32 9 c0 -5 -4 -10 -10 -10 -5 0 -10 5 -10 10 0 6
5 10 10 10 6 0 10 -4 10 -10z m-348 -15 c0 -5 -5 -11 -11 -13 -6 -2 -11 4 -11
13 0 9 5 15 11 13 6 -2 11 -8 11 -13z m48 1 c0 -16 -18 -31 -27 -22 -8 8 5 36
17 36 5 0 10 -6 10 -14z m67 -12 c-9 -9 -28 6 -21 18 4 6 10 6 17 -1 6 -6 8
-13 4 -17z m719 -26 c-3 -13 -6 -26 -6 -30 0 -5 -4 -8 -8 -8 -5 0 -9 14 -9 30
0 20 5 30 15 30 10 0 13 -7 8 -22z m-861 -15 c-8 -31 -13 -39 -20 -31 -9 9 6
58 17 58 6 0 7 -11 3 -27z m35 -8 c0 -8 -7 -15 -15 -15 -16 0 -20 12 -8 23 11
12 23 8 23 -8z m600 -21 c0 -8 -4 -12 -10 -9 -5 3 -10 10 -10 16 0 5 5 9 10 9
6 0 10 -7 10 -16z m260 1 c0 -8 -4 -15 -9 -15 -13 0 -22 16 -14 24 11 11 23 6
23 -9z m-836 -21 c3 -9 13 -14 20 -11 13 5 45 -20 35 -26 -48 -27 -47 -28 -63
5 -9 17 -16 35 -16 40 0 14 18 9 24 -8z m276 -5 c0 -6 -9 -13 -19 -16 -11 -3
-21 -12 -23 -21 -3 -13 -5 -13 -17 2 -13 15 -12 18 7 23 12 3 22 9 22 14 0 5
7 9 15 9 8 0 15 -5 15 -11z m570 -24 c0 -8 -4 -15 -10 -15 -5 0 -10 7 -10 15
0 8 5 15 10 15 6 0 10 -7 10 -15z m-760 -10 c0 -8 -4 -15 -10 -15 -5 0 -10 7
-10 15 0 8 5 15 10 15 6 0 10 -7 10 -15z m-120 -10 c0 -8 -4 -15 -10 -15 -5 0
-10 7 -10 15 0 8 5 15 10 15 6 0 10 -7 10 -15z m148 -38 c2 -12 -3 -17 -17
-17 -12 0 -21 6 -21 13 0 31 32 34 38 4z m682 -28 c0 -5 -4 -9 -10 -9 -5 0
-10 7 -10 16 0 8 5 12 10 9 6 -3 10 -10 10 -16z m40 6 c0 -8 -4 -15 -10 -15
-5 0 -10 7 -10 15 0 8 5 15 10 15 6 0 10 -7 10 -15z m40 -23 c0 -13 -12 -22
-22 -16 -10 6 -1 24 13 24 5 0 9 -4 9 -8z m-290 -48 c0 -8 -9 -14 -20 -14 -22
0 -26 10 -8 28 13 13 28 7 28 -14z m280 -22 c0 -14 -11 -21 -26 -15 -21 8 -17
23 6 23 11 0 20 -4 20 -8z m-300 -12 c0 -5 -4 -10 -10 -10 -5 0 -10 5 -10 10
0 6 5 10 10 10 6 0 10 -4 10 -10z m204 -3 c17 -12 17 -14 2 -20 -28 -11 -57 8
-39 26 9 10 17 9 37 -6z"/>
<path d="M1980 1116 c0 -179 1 -186 20 -186 11 0 20 -7 20 -15 0 -8 6 -15 14
-15 18 0 29 -17 21 -30 -5 -8 -11 -8 -20 0 -9 8 -11 5 -7 -15 2 -15 0 -25 -7
-25 -6 0 -11 7 -11 15 0 8 -7 15 -15 15 -12 0 -15 -15 -15 -79 0 -61 3 -80 15
-85 11 -4 15 1 15 19 0 15 5 24 13 23 6 -2 12 4 12 12 0 8 -6 16 -12 16 -30 3
-33 4 -33 14 0 6 16 10 35 10 l35 0 0 -54 c0 -30 -5 -56 -11 -58 -6 -2 -1 -14
11 -28 12 -14 25 -30 29 -37 8 -16 51 -5 51 13 0 8 5 14 10 14 6 0 10 8 10 18
0 11 -3 13 -8 5 -8 -12 -50 -12 -71 1 -19 12 -1 26 25 20 14 -4 31 -1 39 6 8
7 15 9 15 5 0 -4 7 -2 15 5 8 6 18 9 23 6 13 -8 9 -60 -6 -78 -10 -12 -9 -18
3 -28 19 -16 19 -34 0 -50 -20 -16 -32 -5 -16 14 10 12 8 17 -8 26 -20 10 -25
7 -22 -13 1 -4 3 -24 6 -44 5 -40 24 -67 32 -45 7 18 20 15 26 -7 3 -14 11
-17 31 -14 19 4 26 1 26 -11 0 -9 -6 -16 -14 -16 -17 0 -31 -18 -21 -28 3 -3
10 0 15 8 6 10 12 12 20 4 7 -7 6 -16 -4 -29 -12 -16 -16 -17 -30 -6 -14 12
-16 11 -16 -7 0 -12 8 -25 17 -31 14 -7 15 -12 5 -23 -14 -17 -6 -28 20 -28
10 0 18 -7 18 -16 0 -10 -6 -14 -15 -10 -25 9 -44 -39 -31 -80 11 -36 28 -48
19 -14 -3 12 0 20 8 20 8 0 5 6 -7 15 -16 13 -17 16 -4 24 9 7 18 7 24 1 15
-15 26 -12 20 4 -6 17 12 31 21 16 8 -12 25 -13 25 -1 0 5 -10 11 -21 14 -16
4 -20 11 -16 26 3 15 0 21 -10 21 -12 0 -14 7 -8 27 3 16 11 29 16 31 5 2 9
10 9 18 0 8 4 14 9 14 17 0 23 -21 10 -36 -16 -20 -4 -30 15 -11 16 15 16 72
1 97 -5 9 -4 15 3 18 7 2 12 24 12 53 0 45 -2 49 -18 40 -10 -5 -24 -21 -32
-35 -13 -25 -40 -36 -40 -16 0 6 5 10 11 10 5 0 7 5 4 10 -3 6 -15 10 -26 10
-10 0 -19 7 -19 15 0 8 -4 15 -10 15 -13 0 -13 27 0 35 5 3 15 -5 21 -19 16
-35 33 -38 60 -10 l22 24 -21 0 c-13 0 -22 -6 -22 -15 0 -8 -5 -15 -11 -15 -6
0 -9 9 -6 20 3 11 1 20 -4 20 -5 0 -9 5 -9 11 0 7 -7 17 -15 23 -10 8 -12 16
-5 26 8 13 12 12 28 -5 10 -11 23 -29 29 -39 9 -16 10 -13 9 17 -1 48 17 48
25 0 3 -21 7 -31 8 -23 9 63 9 90 1 90 -21 0 -9 31 15 40 14 5 25 14 25 20 0
5 5 10 11 10 6 0 9 -9 6 -19 -3 -13 1 -21 15 -24 11 -3 22 -15 25 -27 4 -15
11 -20 24 -17 14 4 19 0 19 -13 0 -19 130 -144 139 -134 4 3 -5 14 -18 25 -27
22 -25 27 10 31 17 2 23 -1 21 -13 -1 -9 5 -20 14 -23 25 -10 29 1 9 24 -18
20 -18 21 3 41 22 19 23 19 52 2 33 -19 35 -25 19 -52 -18 -28 -4 -68 23 -66
13 1 26 -3 31 -9 9 -14 29 14 22 32 -8 23 5 34 23 20 13 -11 15 -10 9 11 -3
14 -1 31 5 38 8 10 6 13 -6 13 -9 0 -16 5 -16 10 0 6 7 10 15 10 8 0 15 7 15
16 0 11 5 14 16 10 9 -3 20 -6 25 -6 5 0 9 -4 9 -10 0 -5 -7 -10 -16 -10 -8 0
-12 -4 -9 -10 3 -5 18 -10 32 -10 24 0 25 -2 20 -45 -3 -25 -9 -50 -12 -55 -3
-6 -1 -10 4 -10 6 0 11 -7 11 -15 0 -8 5 -15 10 -15 16 0 12 -22 -7 -36 -17
-12 -17 -13 -1 -14 10 0 22 -9 28 -21 13 -24 23 -19 25 14 1 12 6 20 11 17 11
-6 8 -35 -7 -73 -11 -27 -12 -27 -32 -10 -19 17 -20 17 -15 -3 7 -26 -29 -54
-38 -30 -3 8 -3 20 1 26 4 6 -3 10 -17 10 -14 0 -18 -3 -11 -8 6 -4 11 -16 10
-27 -2 -15 4 -20 25 -20 14 0 29 -3 33 -7 4 -4 13 -4 21 -1 8 3 14 -1 14 -8 0
-10 3 -10 12 -1 10 10 10 14 0 21 -7 4 -10 15 -6 24 7 19 21 22 26 6 2 -6 4 8
5 32 2 48 18 73 33 49 5 -9 5 -19 -2 -27 -6 -8 -8 -16 -4 -20 3 -3 6 -1 6 6 0
7 6 11 13 9 6 -3 12 -9 12 -14 0 -5 4 -15 8 -21 8 -13 7 -15 -15 -17 -7 0 -15
-14 -16 -31 -2 -16 -8 -35 -12 -40 -5 -6 -4 -17 2 -25 8 -13 9 -12 5 2 -4 11
2 18 16 22 31 8 37 7 37 -4 0 -5 -7 -10 -15 -10 -12 0 -14 -7 -9 -27 6 -22 4
-25 -10 -20 -18 7 -22 -8 -5 -18 6 -4 8 -13 5 -21 -4 -11 6 -14 42 -14 27 0
53 5 59 11 8 8 13 8 17 0 8 -12 76 -15 76 -3 0 4 -7 18 -16 30 -11 16 -13 27
-5 35 6 8 6 18 1 27 -6 8 -10 20 -10 26 0 17 31 27 44 14 7 -7 4 -10 -9 -10
-12 0 -16 -3 -9 -8 18 -11 28 -52 13 -52 -10 0 -10 -3 -1 -12 7 -7 12 -22 12
-35 0 -22 2 -23 102 -23 l102 0 -30 31 c-16 17 -44 38 -63 46 -18 8 -35 22
-38 31 -6 22 -120 115 -125 102 -5 -15 -48 0 -48 17 0 10 6 12 23 7 19 -6 18
-3 -7 17 -33 26 -66 32 -73 12 -8 -20 -23 -16 -23 6 0 10 7 22 17 25 14 6 12
11 -12 36 -20 21 -35 28 -48 24 -16 -5 -18 -2 -12 18 4 12 12 25 16 26 5 2 9
12 9 23 0 10 6 19 14 19 9 0 12 -7 9 -21 -5 -18 -2 -19 23 -14 50 11 103 39
108 58 2 10 10 15 19 11 22 -8 64 49 84 114 25 81 25 286 -1 360 -21 61 -64
115 -110 139 -87 45 -104 46 -683 50 l-553 4 0 -185z m990 63 c0 -5 -4 -9 -10
-9 -5 0 -10 7 -10 16 0 8 5 12 10 9 6 -3 10 -10 10 -16z m-290 -65 c0 -8 -4
-12 -10 -9 -5 3 -10 13 -10 21 0 8 5 12 10 9 6 -3 10 -13 10 -21z m295 -44
c-3 -5 -10 -10 -16 -10 -5 0 -9 5 -9 10 0 6 7 10 16 10 8 0 12 -4 9 -10z m155
-49 c0 -6 -4 -13 -10 -16 -5 -3 -10 1 -10 9 0 9 5 16 10 16 6 0 10 -4 10 -9z
m55 -1 c-3 -5 -10 -10 -16 -10 -5 0 -9 5 -9 10 0 6 7 10 16 10 8 0 12 -4 9
-10z m-185 -10 c0 -5 -7 -10 -15 -10 -8 0 -15 5 -15 10 0 6 7 10 15 10 8 0 15
-4 15 -10z m-43 -46 c41 -31 49 -61 27 -111 -17 -40 -22 -43 -66 -49 -27 -4
-48 -10 -48 -15 0 -5 -7 -9 -15 -9 -8 0 -15 5 -15 10 0 6 -30 10 -70 10 -45 0
-70 -4 -70 -11 0 -8 -4 -8 -14 0 -11 9 -62 12 -178 10 l-163 -3 -3 28 c-2 16
1 33 7 39 6 6 11 37 11 70 l0 58 284 -3 c271 -3 286 -4 313 -24z m63 -14 c0
-5 -4 -10 -10 -10 -5 0 -10 5 -10 10 0 6 5 10 10 10 6 0 10 -4 10 -10z m-820
-68 c0 -8 -6 -12 -12 -9 -7 2 -12 12 -12 21 1 9 -4 16 -12 16 -15 0 -18 12 -7
24 9 8 42 -33 43 -52z m923 20 c-2 -7 4 -12 13 -12 9 0 14 -6 11 -12 -5 -14
-40 -12 -45 3 -2 5 -10 9 -18 9 -8 0 -14 6 -14 14 0 10 9 14 28 12 15 -1 26
-8 25 -14z m-83 -23 c0 -12 7 -19 19 -19 11 0 22 -4 26 -9 3 -5 -8 -9 -25 -9
-18 1 -30 6 -30 15 0 7 -4 13 -10 13 -5 0 -10 9 -10 20 0 13 5 18 15 14 8 -4
15 -15 15 -25z m-862 -43 c3 -12 -1 -17 -10 -14 -7 3 -15 13 -16 22 -3 12 1
17 10 14 7 -3 15 -13 16 -22z m82 9 c0 -8 -4 -15 -10 -15 -5 0 -10 7 -10 15 0
8 5 15 10 15 6 0 10 -7 10 -15z m750 -15 c0 -5 -4 -10 -10 -10 -5 0 -10 5 -10
10 0 6 5 10 10 10 6 0 10 -4 10 -10z m150 0 c8 -5 11 -12 8 -16 -10 -9 -38 3
-38 16 0 12 10 13 30 0z m36 -63 c2 -17 -2 -27 -11 -27 -16 0 -26 25 -18 45 8
24 25 13 29 -18z m-253 9 c4 -9 -2 -17 -14 -21 -27 -9 -35 0 -19 20 16 19 26
19 33 1z m-814 -5 c16 -10 7 -81 -11 -81 -6 0 -8 12 -4 31 4 24 2 35 -11 45
-15 11 -15 13 -3 14 8 0 21 -4 29 -9z m684 -7 c-3 -8 -12 -13 -20 -10 -7 3
-16 -1 -19 -9 -7 -18 -34 -20 -34 -2 0 21 22 37 52 37 21 0 26 -4 21 -16z
m-483 -4 c0 -5 -7 -10 -15 -10 -8 0 -15 5 -15 10 0 6 7 10 15 10 8 0 15 -4 15
-10z m-234 -47 c-11 -11 -19 6 -11 24 8 17 8 17 12 0 3 -10 2 -21 -1 -24z
m162 25 c10 -10 15 -10 22 2 7 12 12 12 22 2 9 -9 9 -12 -5 -12 -9 0 -17 -7
-17 -15 0 -8 -4 -15 -10 -15 -5 0 -10 5 -10 10 0 6 -7 10 -15 10 -8 0 -15 7
-15 15 0 18 12 19 28 3z m1012 -3 c0 -8 -4 -15 -9 -15 -13 0 -22 16 -14 24 11
11 23 6 23 -9z m-425 -15 c0 -7 -6 -15 -12 -17 -8 -3 -13 4 -13 17 0 13 5 20
13 18 6 -3 12 -11 12 -18z m45 10 c0 -5 -7 -10 -15 -10 -8 0 -15 5 -15 10 0 6
7 10 15 10 8 0 15 -4 15 -10z m22 -12 c-7 -7 -12 -8 -12 -2 0 14 12 26 19 19
2 -3 -1 -11 -7 -17z m-302 -14 c0 -8 -4 -12 -10 -9 -5 3 -10 10 -10 16 0 5 5
9 10 9 6 0 10 -7 10 -16z m-70 -20 c0 -8 -4 -12 -10 -9 -5 3 -10 10 -10 16 0
5 5 9 10 9 6 0 10 -7 10 -16z m390 0 c0 -17 -22 -14 -28 4 -2 7 3 12 12 12 9
0 16 -7 16 -16z m75 -9 c0 -10 -6 -20 -12 -22 -8 -3 -13 5 -13 22 0 17 5 25
13 23 6 -3 12 -13 12 -23z m-394 -8 c-1 -12 -15 -9 -19 4 -3 6 1 10 8 8 6 -3
11 -8 11 -12z m49 -1 c0 -8 -4 -17 -9 -21 -12 -7 -24 12 -16 25 9 15 25 12 25
-4z m557 -12 c-9 -9 -28 6 -21 18 4 6 10 6 17 -1 6 -6 8 -13 4 -17z m-67 -4
c0 -5 -7 -10 -15 -10 -8 0 -15 5 -15 10 0 6 7 10 15 10 8 0 15 -4 15 -10z
m-350 -31 c0 -18 -2 -19 -15 -9 -8 7 -15 16 -15 21 0 5 7 9 15 9 9 0 15 -9 15
-21z m245 -19 c3 -5 -1 -10 -9 -10 -9 0 -16 5 -16 10 0 6 4 10 9 10 6 0 13 -4
16 -10z m-255 -21 c0 -5 -4 -9 -10 -9 -5 0 -10 7 -10 16 0 8 5 12 10 9 6 -3
10 -10 10 -16z m220 6 c0 -8 -4 -15 -10 -15 -5 0 -10 7 -10 15 0 8 5 15 10 15
6 0 10 -7 10 -15z m-660 -44 c0 -6 -4 -13 -10 -16 -5 -3 -10 1 -10 9 0 9 5 16
10 16 6 0 10 -4 10 -9z m-90 -36 c0 -8 -7 -15 -15 -15 -8 0 -15 7 -15 15 0 8
7 15 15 15 8 0 15 -7 15 -15z m775 -18 c0 -6 11 -14 25 -17 26 -6 35 -40 13
-47 -7 -3 -13 2 -13 11 0 9 -6 16 -12 16 -14 0 -39 46 -30 55 7 7 17 -4 17
-18z m-739 -14 c-10 -10 -19 5 -10 18 6 11 8 11 12 0 2 -7 1 -15 -2 -18z m34
-41 c0 -7 -8 -12 -17 -10 -24 4 -27 24 -3 24 11 0 20 -6 20 -14z m841 -54 c12
-29 18 -33 47 -30 33 4 43 -13 21 -35 -13 -13 -36 -6 -63 19 -11 10 -26 18
-34 18 -9 0 -12 6 -8 16 3 9 6 22 6 30 0 25 16 15 31 -18z m-45 -63 c-3 -8 -1
-15 5 -15 5 0 12 7 15 15 9 24 24 17 24 -10 0 -18 5 -25 20 -25 23 0 27 -18 5
-26 -9 -4 -15 -19 -15 -35 0 -44 -17 -35 -24 13 -5 29 -10 38 -15 29 -11 -17
-32 -5 -24 14 4 11 -2 15 -20 15 -35 0 -44 18 -15 29 35 15 51 13 44 -4z m194
-50 c0 -8 -6 -15 -12 -16 -10 0 -10 -2 0 -6 17 -7 15 -23 -3 -23 -17 0 -18 4
-9 38 7 25 24 30 24 7z m-200 -45 c0 -5 -4 -10 -10 -10 -5 0 -10 5 -10 10 0 6
5 10 10 10 6 0 10 -4 10 -10z m90 -5 c0 -8 -4 -15 -10 -15 -5 0 -10 7 -10 15
0 8 5 15 10 15 6 0 10 -7 10 -15z m170 -11 c0 -8 -5 -12 -10 -9 -6 4 -8 11 -5
16 9 14 15 11 15 -7z m-40 -20 c0 -10 -7 -14 -22 -12 -32 5 -35 28 -4 28 17 0
26 -5 26 -16z"/>
<path d="M2380 895 l0 -75 264 0 c146 0 276 4 289 9 24 10 53 62 43 79 -8 14
-57 12 -49 -2 3 -6 0 -6 -8 2 -9 9 -68 12 -220 12 -123 0 -210 4 -214 10 -3 6
77 10 215 12 178 2 219 0 215 -10 -3 -7 0 -10 6 -7 33 21 -13 27 -216 28
l-220 1 210 6 210 6 -262 2 -263 2 0 -75z"/>
<path d="M1980 900 c0 -5 5 -10 11 -10 5 0 7 5 4 10 -3 6 -8 10 -11 10 -2 0
-4 -4 -4 -10z"/>
<path d="M550 518 c0 -166 4 -299 9 -302 15 -10 32 53 20 75 -5 11 -6 19 0 19
5 0 10 57 11 128 1 70 3 164 4 210 1 68 -2 89 -21 125 l-22 42 -1 -297z"/>
<path d="M1496 773 c-6 -14 -5 -15 5 -6 7 7 10 15 7 18 -3 3 -9 -2 -12 -12z"/>
<path d="M4848 783 c6 -2 18 -2 25 0 6 3 1 5 -13 5 -14 0 -19 -2 -12 -5z"/>
<path d="M1465 719 c-9 -17 -14 -33 -11 -37 3 -3 7 -3 9 -1 26 43 36 69 28 69
-6 0 -18 -14 -26 -31z"/>
<path d="M4790 733 c0 -5 5 -15 10 -23 8 -12 10 -11 10 8 0 12 -4 22 -10 22
-5 0 -10 -3 -10 -7z"/>
<path d="M2380 472 c0 -221 2 -261 15 -266 8 -3 14 -2 14 2 -1 4 0 9 1 12 1 3
4 82 6 175 2 94 5 199 7 235 5 60 3 67 -19 83 l-24 18 0 -259z"/>
<path d="M1425 634 c-17 -41 -19 -54 -7 -54 4 0 8 10 9 21 1 12 9 29 17 38 18
20 20 31 6 31 -5 0 -17 -16 -25 -36z"/>
<path d="M1985 650 c-3 -5 1 -12 9 -15 9 -3 23 -7 30 -9 10 -3 13 0 9 10 -3 8
-8 12 -11 10 -3 -3 -11 -1 -18 5 -8 7 -14 7 -19 -1z"/>
<path d="M4641 644 c0 -11 3 -14 6 -6 3 7 2 16 -1 19 -3 4 -6 -2 -5 -13z"/>
<path d="M2697 613 c-4 -3 -7 -16 -6 -27 0 -19 1 -19 10 3 10 24 8 36 -4 24z"/>
<path d="M1980 577 c0 -22 6 -39 15 -45 9 -4 17 -18 18 -30 1 -12 5 -22 10
-22 5 0 7 -6 4 -13 -3 -7 1 -21 8 -30 12 -16 14 -15 29 7 20 32 21 42 1 26
-16 -13 -18 -8 -9 28 7 25 34 31 34 7 0 -20 13 -19 32 3 25 27 -13 95 -43 77
-6 -4 -15 -1 -20 6 -7 11 -9 10 -9 -3 0 -10 -4 -18 -9 -18 -5 0 -11 -10 -14
-22 -3 -21 -4 -22 -12 -4 -5 11 -3 26 4 38 8 13 9 18 1 13 -6 -4 -17 -1 -25 5
-13 11 -15 7 -15 -23z m140 -41 c0 -8 -4 -18 -10 -21 -5 -3 -10 -4 -10 -1 0 2
-3 11 -6 20 -4 11 -1 16 10 16 9 0 16 -6 16 -14z"/>
<path d="M515 590 c-19 -31 -24 -73 -10 -87 13 -13 15 -11 16 11 5 94 5 94 -6
76z"/>
<path d="M436 582 c-3 -5 1 -9 9 -9 8 0 15 4 15 9 0 4 -4 8 -9 8 -6 0 -12 -4
-15 -8z"/>
<path d="M1384 554 c-4 -10 -9 -22 -11 -26 -2 -5 0 -8 5 -8 10 0 24 41 17 48
-3 3 -8 -4 -11 -14z"/>
<path d="M366 545 c-14 -11 -15 -18 -7 -32 10 -17 10 -17 11 0 0 9 5 17 10 17
6 0 10 -5 10 -11 0 -6 8 -8 20 -4 15 5 21 0 26 -19 3 -14 15 -27 30 -30 13 -4
24 -12 24 -20 0 -19 28 -15 33 5 3 11 0 16 -8 12 -8 -2 -23 1 -35 7 -18 10
-21 18 -16 42 6 28 5 29 -24 23 -17 -4 -30 -2 -30 3 0 17 -25 20 -44 7z"/>
<path d="M2645 540 c3 -5 11 -10 16 -10 6 0 7 5 4 10 -3 6 -11 10 -16 10 -6 0
-7 -4 -4 -10z"/>
<path d="M3091 543 c-10 -4 -7 -11 12 -27 14 -11 78 -66 142 -121 199 -170
229 -194 248 -195 9 0 17 4 17 9 0 5 3 18 7 28 3 10 2 15 -2 11 -5 -5 -14 1
-22 12 -8 11 -20 20 -28 20 -7 0 -26 14 -42 30 -15 17 -35 30 -44 30 -9 0 -28
12 -42 28 -15 15 -55 57 -91 95 -35 37 -61 67 -58 67 4 0 0 5 -8 10 -16 10
-66 12 -89 3z"/>
<path d="M2694 505 c6 -19 13 -30 14 -25 6 16 -7 60 -17 60 -4 0 -3 -16 3 -35z"/>
<path d="M2850 522 c0 -7 -7 -12 -15 -12 -9 0 -12 -6 -9 -15 4 -8 10 -15 14
-15 11 0 24 40 16 47 -3 4 -6 1 -6 -5z"/>
<path d="M4630 515 c0 -8 7 -15 15 -15 9 0 12 6 9 15 -4 8 -10 15 -15 15 -5 0
-9 -7 -9 -15z"/>
<path d="M2888 514 c-4 -4 -3 -12 2 -19 6 -8 5 -18 -4 -31 -12 -16 -12 -23 0
-46 8 -16 16 -28 17 -28 2 0 2 18 0 40 -2 30 1 40 12 40 8 0 15 5 15 10 0 6
-6 10 -14 10 -8 0 -16 7 -18 16 -2 9 -6 12 -10 8z"/>
<path d="M1360 500 c-12 -7 -12 -11 -2 -20 6 -5 10 -7 7 -4 -3 4 0 13 6 21 13
15 10 16 -11 3z"/>
<path d="M2740 501 c0 -5 5 -13 10 -16 6 -3 10 -2 10 4 0 5 -4 13 -10 16 -5 3
-10 2 -10 -4z"/>
<path d="M4566 498 c-10 -31 -16 -68 -12 -68 3 0 17 5 31 12 28 13 33 28 9 28
-9 0 -14 6 -11 13 2 6 10 11 16 10 6 -2 11 2 11 7 0 15 -40 12 -44 -2z"/>
<path d="M4138 488 c9 -9 15 -9 24 0 9 9 7 12 -12 12 -19 0 -21 -3 -12 -12z"/>
<path d="M4273 494 c21 -7 22 -27 2 -44 -20 -17 -19 -27 5 -35 11 -3 20 -12
20 -19 0 -6 9 -12 20 -12 22 0 28 34 9 53 -6 6 -17 22 -23 35 -6 12 -20 24
-31 25 -16 1 -16 1 -2 -3z"/>
<path d="M4387 489 c13 -13 48 -16 51 -4 1 5 -12 10 -29 11 -17 1 -27 -2 -22
-7z"/>
<path d="M4460 488 c0 -28 16 -39 41 -30 l24 9 -23 7 c-12 4 -22 12 -22 17 0
5 -4 9 -10 9 -5 0 -10 -6 -10 -12z"/>
<path d="M801 473 c0 -12 -4 -30 -7 -40 -5 -14 -4 -15 5 -7 7 6 11 24 8 40 -3
21 -4 23 -6 7z"/>
<path d="M4357 477 c-7 -18 28 -87 44 -87 5 0 9 15 8 33 0 26 -2 28 -9 12 -7
-19 -8 -19 -17 5 -6 14 -12 32 -15 39 -3 12 -6 12 -11 -2z"/>
<path d="M4640 465 c-10 -12 -10 -15 2 -15 8 0 19 5 26 12 8 8 14 5 21 -14 5
-14 16 -28 23 -31 11 -4 10 -7 -1 -15 -18 -13 -5 -32 20 -32 12 0 19 -5 16
-12 -2 -7 -9 -12 -15 -11 -16 4 -34 -25 -34 -52 0 -32 4 -37 26 -29 15 6 15 7
-1 20 -15 12 -16 15 -3 23 9 7 19 6 27 -1 10 -8 13 -6 13 6 0 12 6 15 25 10
14 -3 25 -2 25 4 0 5 -10 12 -21 15 -17 5 -20 11 -17 31 3 14 1 23 -3 20 -18
-11 -29 7 -16 27 10 16 9 21 -3 29 -8 5 -18 6 -22 4 -4 -3 -18 2 -30 10 -28
20 -42 20 -58 1z"/>
<path d="M220 460 c0 -5 -10 -10 -22 -10 -12 0 -18 -3 -14 -7 12 -12 40 -12
48 0 11 17 10 27 -2 27 -5 0 -10 -4 -10 -10z"/>
<path d="M1337 463 c-10 -9 -9 -33 1 -33 4 0 8 9 9 20 2 21 0 24 -10 13z"/>
<path d="M4236 461 c-4 -7 -5 -15 -2 -18 9 -9 19 4 14 18 -4 11 -6 11 -12 0z"/>
<path d="M2160 451 c0 -5 -6 -9 -12 -8 -45 1 -60 -4 -54 -19 3 -8 1 -24 -4
-35 -15 -26 -3 -43 16 -24 9 8 22 15 30 15 8 0 14 6 14 14 0 9 -7 12 -21 9
-16 -4 -20 -2 -17 8 3 9 19 14 41 14 27 0 36 4 32 13 -3 8 -5 16 -5 18 0 2 -4
4 -10 4 -5 0 -10 -4 -10 -9z"/>
<path d="M280 425 c0 -14 6 -25 13 -25 20 0 25 9 20 31 -8 28 -33 24 -33 -6z"/>
<path d="M450 416 c0 -8 5 -18 10 -21 6 -3 10 3 10 14 0 12 -4 21 -10 21 -5 0
-10 -6 -10 -14z"/>
<path d="M1996 421 c-10 -15 18 -39 38 -32 17 7 16 8 -7 24 -14 9 -28 13 -31
8z"/>
<path d="M4865 420 c3 -5 8 -10 11 -10 2 0 4 5 4 10 0 6 -5 10 -11 10 -5 0 -7
-4 -4 -10z"/>
<path d="M847 413 c-4 -3 -2 -12 4 -19 7 -8 7 -14 -1 -19 -5 -3 -10 0 -10 8 0
8 -9 17 -20 20 -16 4 -20 0 -20 -19 0 -14 5 -23 13 -21 6 1 11 -6 11 -16 -2
-15 2 -13 23 8 14 14 34 25 44 25 22 0 24 11 7 28 -13 13 -41 16 -51 5z"/>
<path d="M4620 412 c0 -15 11 -21 27 -15 12 5 12 7 1 14 -17 11 -28 11 -28 1z"/>
<path d="M2175 399 c-12 -19 5 -23 22 -6 16 16 16 17 1 17 -9 0 -20 -5 -23
-11z"/>
<path d="M1285 360 c-10 -22 -15 -43 -12 -46 4 -4 11 6 17 22 5 16 15 37 20
47 6 9 6 17 2 17 -5 0 -17 -18 -27 -40z"/>
<path d="M2803 383 c9 -9 19 -14 23 -11 10 10 -6 28 -24 28 -15 0 -15 -1 1
-17z"/>
<path d="M277 383 c-4 -3 -7 -11 -7 -17 0 -6 5 -5 12 2 6 6 9 14 7 17 -3 3 -9
2 -12 -2z"/>
<path d="M4830 381 c0 -5 5 -13 10 -16 6 -3 10 -2 10 4 0 5 -4 13 -10 16 -5 3
-10 2 -10 -4z"/>
<path d="M370 371 c0 -5 5 -13 10 -16 6 -3 10 -2 10 4 0 5 -4 13 -10 16 -5 3
-10 2 -10 -4z"/>
<path d="M2040 365 c0 -8 4 -15 10 -15 5 0 7 7 4 15 -4 8 -8 15 -10 15 -2 0
-4 -7 -4 -15z"/>
<path d="M4476 363 c-6 -14 -5 -15 5 -6 7 7 10 15 7 18 -3 3 -9 -2 -12 -12z"/>
<path d="M4600 348 c0 -10 5 -18 10 -18 6 0 10 6 10 14 0 8 6 16 13 19 6 3 2
4 -10 4 -15 -1 -23 -8 -23 -19z"/>
<path d="M189 348 c-11 -7 -11 -11 -1 -15 6 -2 12 -12 12 -21 1 -15 3 -14 15
2 8 11 15 23 15 27 0 13 -27 17 -41 7z"/>
<path d="M4951 344 c0 -11 3 -14 6 -6 3 7 2 16 -1 19 -3 4 -6 -2 -5 -13z"/>
<path d="M2150 342 c0 -14 11 -21 26 -15 8 3 11 9 8 14 -7 11 -34 12 -34 1z"/>
<path d="M4832 304 c-1 -13 3 -24 8 -24 12 0 14 37 2 44 -4 2 -9 -6 -10 -20z"/>
<path d="M2330 310 c0 -6 7 -10 15 -10 8 0 15 2 15 4 0 2 -7 6 -15 10 -8 3
-15 1 -15 -4z"/>
<path d="M967 304 c-4 -4 -7 -14 -7 -23 0 -11 3 -12 11 -4 6 6 10 16 7 23 -2
6 -7 8 -11 4z"/>
<path d="M4873 295 c0 -8 4 -12 9 -9 5 3 6 10 3 15 -9 13 -12 11 -12 -6z"/>
<path d="M1250 285 c0 -8 2 -15 4 -15 2 0 6 7 10 15 3 8 1 15 -4 15 -6 0 -10
-7 -10 -15z"/>
<path d="M2130 279 c0 -23 16 -24 36 -4 17 17 17 17 -13 20 -17 2 -23 -3 -23
-16z"/>
<path d="M4230 283 c0 -13 5 -23 10 -23 13 0 13 11 0 30 -8 12 -10 11 -10 -7z"/>
<path d="M905 259 c4 -46 5 -48 16 -20 7 18 6 28 -5 39 -12 12 -13 10 -11 -19z"/>
<path d="M2942 276 c1 -10 8 -17 13 -17 15 1 12 24 -3 29 -9 3 -13 -2 -10 -12z"/>
<path d="M4368 268 c-10 -10 -14 -18 -9 -18 10 0 36 29 30 34 -2 1 -12 -6 -21
-16z"/>
<path d="M1022 252 c-12 -27 -17 -100 -5 -89 3 4 6 23 5 43 -1 29 2 35 14 30
9 -3 22 -6 30 -6 8 0 14 -4 14 -10 0 -5 -7 -10 -16 -10 -19 0 -13 -24 7 -28 8
-1 22 12 31 28 l18 31 -38 16 c-20 8 -39 17 -42 18 -3 2 -11 -8 -18 -23z"/>
<path d="M2005 260 c3 -5 8 -10 11 -10 2 0 4 5 4 10 0 6 -5 10 -11 10 -5 0 -7
-4 -4 -10z"/>
<path d="M370 245 c0 -8 4 -15 10 -15 5 0 7 7 4 15 -4 8 -8 15 -10 15 -2 0 -4
-7 -4 -15z"/>
<path d="M1230 245 c-7 -9 -10 -18 -7 -21 3 -3 10 4 17 15 13 25 8 27 -10 6z"/>
<path d="M4630 250 c-9 -6 -10 -10 -3 -10 6 0 15 5 18 10 8 12 4 12 -15 0z"/>
<path d="M4705 240 c3 -5 8 -10 11 -10 2 0 4 5 4 10 0 6 -5 10 -11 10 -5 0 -7
-4 -4 -10z"/>
<path d="M2980 230 c0 -5 5 -10 10 -10 6 0 10 5 10 10 0 6 -4 10 -10 10 -5 0
-10 -4 -10 -10z"/>
<path d="M1155 220 c-3 -5 -1 -10 4 -10 6 0 11 5 11 10 0 6 -2 10 -4 10 -3 0
-8 -4 -11 -10z"/>
<path d="M4340 215 c0 -11 6 -15 19 -10 12 3 21 0 24 -10 4 -8 13 -12 22 -9
14 6 14 8 -2 19 -34 23 -63 28 -63 10z"/>
<path d="M4450 213 c0 -13 5 -23 10 -23 13 0 13 11 0 30 -8 12 -10 11 -10 -7z"/>
<path d="M2080 210 c0 -5 5 -10 11 -10 5 0 7 5 4 10 -3 6 -8 10 -11 10 -2 0
-4 -4 -4 -10z"/>
<path d="M915 200 c-3 -5 1 -10 9 -10 9 0 16 5 16 10 0 6 -4 10 -9 10 -6 0
-13 -4 -16 -10z"/>
<path d="M4252 190 c0 -14 2 -19 5 -12 2 6 2 18 0 25 -3 6 -5 1 -5 -13z"/>
<path d="M4285 185 c0 -14 6 -25 13 -25 6 0 12 4 12 8 0 5 -6 16 -12 25 -12
16 -13 15 -13 -8z"/>
<path d="M4710 200 c0 -6 7 -10 15 -10 8 0 15 2 15 4 0 2 -7 6 -15 10 -8 3
-15 1 -15 -4z"/>
<path d="M235 190 c-3 -5 -1 -10 4 -10 6 0 11 5 11 10 0 6 -2 10 -4 10 -3 0
-8 -4 -11 -10z"/>
<path d="M3020 191 c0 -6 5 -13 10 -16 6 -3 10 1 10 9 0 9 -4 16 -10 16 -5 0
-10 -4 -10 -9z"/>
<path d="M4175 189 c-10 -15 -2 -19 24 -12 17 4 19 8 9 14 -18 12 -26 11 -33
-2z"/>
<path d="M950 169 c0 -5 5 -7 10 -4 6 3 10 8 10 11 0 2 -4 4 -10 4 -5 0 -10
-5 -10 -11z"/>
<path d="M2190 169 c0 -5 5 -7 10 -4 6 3 10 8 10 11 0 2 -4 4 -10 4 -5 0 -10
-5 -10 -11z"/>
<path d="M4660 170 c0 -5 5 -10 11 -10 5 0 7 5 4 10 -3 6 -8 10 -11 10 -2 0
-4 -4 -4 -10z"/>
</g>
</svg>
