<?xml version="1.0" standalone="no"?>
<!DOCTYPE svg PUBLIC "-//W3C//DTD SVG 20010904//EN"
 "http://www.w3.org/TR/2001/REC-SVG-20010904/DTD/svg10.dtd">
<svg version="1.0" xmlns="http://www.w3.org/2000/svg"
 width="708.000000pt" height="355.000000pt" viewBox="0 0 708.000000 355.000000"
 preserveAspectRatio="xMidYMid meet">

<g transform="translate(0.000000,355.000000) scale(0.100000,-0.100000)"
fill="#000000" stroke="none">
<path d="M4647 2643 c-9 -9 -7 -608 2 -798 8 -165 20 -202 82 -264 108 -109
128 -113 578 -118 199 -2 370 -1 380 3 9 4 37 6 62 5 105 -6 220 46 293 130
64 76 65 84 68 589 l3 455 -205 0 -205 0 -2 -210 c-1 -115 -3 -289 -3 -385 0
-96 -5 -182 -10 -190 -8 -13 -53 -15 -287 -17 -178 -2 -290 1 -310 8 l-33 11
0 394 0 394 -203 0 c-112 0 -207 -3 -210 -7z m393 -398 c0 -335 2 -386 15
-397 9 -7 25 -22 37 -33 14 -14 22 -16 25 -7 6 16 41 16 56 0 7 -7 12 -22 12
-33 0 -16 6 -19 25 -17 14 2 27 8 28 13 5 13 22 0 22 -17 0 -10 -7 -13 -25 -8
-19 5 -25 2 -25 -10 0 -9 -6 -16 -12 -16 -31 -1 -40 -16 -30 -54 11 -40 4 -47
-16 -16 -12 20 -42 28 -42 10 0 -5 7 -13 17 -18 20 -12 10 -44 -12 -36 -8 3
-15 1 -15 -5 0 -6 8 -12 18 -12 9 -1 33 -3 52 -5 21 -1 42 4 52 13 21 19 13
40 -8 22 -8 -7 -14 -7 -14 -1 0 5 8 13 18 17 16 6 16 7 -2 20 -26 19 -14 47
17 40 12 -4 40 -7 60 -8 20 -1 37 -3 37 -4 0 -13 -14 -31 -22 -27 -11 7 -40
-22 -51 -48 -3 -10 -14 -18 -23 -18 -8 0 -14 -6 -11 -12 2 -7 12 -12 21 -12 9
1 16 -4 16 -11 0 -8 -8 -11 -20 -8 -11 3 -20 9 -20 14 0 5 -7 9 -15 9 -18 0
-20 -17 -2 -23 9 -3 8 -8 -3 -22 -11 -14 -12 -19 -2 -22 17 -6 15 -23 -3 -23
-8 0 -15 7 -15 16 0 10 -6 14 -15 10 -20 -7 -19 14 2 29 9 7 13 17 9 23 -8 14
-36 4 -36 -13 0 -7 -7 -18 -15 -25 -9 -7 -14 -18 -11 -25 2 -6 -2 -12 -10 -12
-17 0 -18 11 -1 29 15 16 20 58 7 58 -6 0 -10 -6 -10 -12 0 -10 -3 -10 -9 0
-5 8 -17 12 -27 10 -24 -4 -25 -33 -1 -32 25 2 21 -12 -10 -33 -29 -20 -48
-21 -125 -9 -64 10 -118 38 -171 89 -92 90 -97 119 -97 645 l0 402 190 0 190
0 0 -385z m1050 115 c0 -173 -4 -270 -10 -270 -5 0 -10 -7 -10 -15 0 -8 5 -15
10 -15 17 0 12 -109 -6 -128 -15 -14 -15 -17 0 -27 9 -7 16 -21 16 -31 -1 -26
-26 -58 -35 -44 -9 14 -26 2 -23 -17 2 -9 -3 -18 -11 -21 -10 -3 -12 1 -8 17
6 22 -7 38 -18 21 -12 -19 -23 0 -18 31 3 24 1 30 -9 27 -16 -7 -22 50 -8 68
15 17 0 46 -21 41 -12 -3 -16 0 -12 9 3 10 13 12 27 9 11 -4 29 -9 39 -11 9
-3 17 -1 17 5 0 6 7 11 15 11 13 0 15 7 9 38 -8 44 -12 51 -23 33 -5 -7 -14
-10 -20 -7 -6 4 -9 11 -6 15 5 10 -43 77 -53 74 -4 -2 -7 -9 -7 -15 0 -7 -8
-12 -16 -10 -9 1 -22 -4 -29 -13 -10 -12 -9 -16 4 -21 24 -9 19 -31 -6 -30
-19 1 -23 -4 -23 -31 0 -41 -14 -43 -21 -3 -6 30 -18 36 -48 24 -22 -8 -20
-21 4 -29 11 -4 18 -11 15 -16 -4 -5 0 -12 8 -15 9 -3 13 -13 10 -25 -3 -10 0
-19 6 -19 6 0 11 7 11 15 0 8 9 15 20 15 19 0 19 -1 3 -20 -23 -26 -40 -25
-63 3 -12 15 -22 19 -29 12 -14 -15 24 -59 45 -51 13 5 15 1 10 -19 -4 -14 -2
-25 4 -25 5 0 10 5 10 11 0 6 11 9 25 7 13 -2 23 2 22 7 -1 6 -5 9 -9 7 -5 -1
-8 2 -8 8 0 11 40 34 41 23 3 -27 -4 -79 -12 -81 -13 -5 -11 -42 2 -42 8 0 8
-4 0 -14 -10 -12 -8 -17 9 -26 21 -11 23 -9 33 35 4 18 5 18 6 -2 0 -12 6 -25
11 -28 19 -12 10 -23 -22 -30 -18 -4 -41 -14 -50 -23 -16 -14 -18 -14 -18 1 0
8 5 17 11 19 7 2 5 9 -5 17 -14 11 -16 11 -16 -4 0 -22 -23 -14 -35 13 -10 23
-25 30 -25 12 0 -5 -4 -10 -10 -10 -5 0 -10 7 -10 15 0 8 9 15 20 15 12 0 20
7 20 16 0 13 -7 15 -29 11 -24 -5 -30 -2 -36 16 -4 13 -8 17 -12 10 -8 -21
-23 -14 -23 10 0 13 9 32 20 42 24 22 25 33 3 57 -15 17 -15 18 1 18 13 0 16
8 13 44 -5 49 -14 69 -28 60 -6 -3 -9 22 -7 69 2 41 6 73 11 70 16 -9 18 27 3
49 -13 18 -16 52 -16 175 l0 153 185 0 185 0 0 -270z m-137 -257 c-7 -2 -19
-2 -25 0 -7 3 -2 5 12 5 14 0 19 -2 13 -5z m-63 -65 c0 -19 -2 -20 -10 -8 -13
19 -13 30 0 30 6 0 10 -10 10 -22z m-163 -80 c-3 -8 -6 -5 -6 6 -1 11 2 17 5
13 3 -3 4 -12 1 -19z m7 -123 c3 -9 0 -15 -9 -15 -8 0 -15 7 -15 15 0 8 4 15
9 15 5 0 11 -7 15 -15z m-44 -15 c0 -5 -7 -7 -15 -4 -9 4 -15 0 -15 -10 0 -9
7 -16 15 -16 23 0 18 -16 -10 -28 -14 -7 -28 -12 -31 -12 -4 0 2 37 12 68 4
14 44 17 44 2z m-440 -4 c0 -9 -30 -14 -35 -6 -4 6 3 10 14 10 12 0 21 -2 21
-4z m130 -11 c7 -8 9 -15 5 -15 -3 0 3 -12 14 -26 27 -34 27 -60 1 -60 -11 0
-20 6 -20 12 0 7 -9 16 -20 19 -24 8 -25 18 -5 35 20 17 19 37 -2 43 -15 4
-15 5 -2 6 9 0 22 -6 29 -14z m138 0 c-3 -12 -38 -9 -51 4 -5 5 5 8 22 7 17
-1 30 -6 29 -11z m42 6 c0 -5 10 -13 22 -17 l23 -7 -24 -9 c-17 -6 -27 -5 -33
4 -11 18 -10 38 2 38 6 0 10 -4 10 -9z m-97 -51 c9 -24 10 -24 17 -5 7 16 9
14 9 -12 1 -18 -3 -33 -8 -33 -16 0 -51 69 -44 87 5 14 8 14 11 2 3 -7 9 -25
15 -39z m287 25 c-7 -8 -19 -15 -27 -15 -13 0 -13 3 -3 15 7 8 19 15 27 15 13
0 13 -3 3 -15z m-424 -22 c-10 -10 -19 5 -10 18 6 11 8 11 12 0 2 -7 1 -15 -2
-18z m491 7 c23 0 32 -23 13 -35 -14 -9 -1 -28 14 -22 9 4 11 -3 8 -20 -3 -18
0 -25 17 -30 11 -3 21 -10 21 -15 0 -6 -11 -7 -25 -4 -19 5 -25 2 -25 -10 0
-12 -3 -14 -13 -6 -8 7 -18 8 -27 1 -13 -8 -12 -11 3 -23 16 -13 16 -14 1 -20
-19 -7 -21 -6 -24 14 -5 35 1 51 25 60 29 11 33 30 7 30 -26 0 -34 11 -20 28
10 11 9 16 -5 23 -9 6 -17 20 -17 31 0 17 3 19 12 10 7 -7 22 -12 35 -12z
m143 -30 c0 -5 -2 -10 -4 -10 -3 0 -8 5 -11 10 -3 6 -1 10 4 10 6 0 11 -4 11
-10z m-232 -9 c11 -7 11 -9 -1 -14 -16 -6 -27 0 -27 15 0 10 11 10 28 -1z
m202 -42 c0 -6 -4 -7 -10 -4 -5 3 -10 11 -10 16 0 6 5 7 10 4 6 -3 10 -11 10
-16z m-217 -6 c-7 -3 -13 -11 -13 -19 0 -8 -4 -14 -10 -14 -5 0 -10 8 -10 18
0 11 8 18 23 19 12 0 16 -1 10 -4z m217 -64 c0 -10 -4 -19 -9 -19 -5 0 -8 11
-7 24 1 28 16 24 16 -5z m35 2 c3 -5 2 -12 -3 -15 -5 -3 -9 1 -9 9 0 17 3 19
12 6z m-642 -16 c4 -8 2 -17 -3 -20 -6 -4 -10 3 -10 14 0 25 6 27 13 6z m137
-20 c-7 -8 -16 -15 -21 -15 -5 0 -1 8 9 18 20 22 31 19 12 -3z m265 -15 c-3
-5 -12 -10 -18 -10 -7 0 -6 4 3 10 19 12 23 12 15 0z m75 -10 c0 -5 -2 -10 -4
-10 -3 0 -8 5 -11 10 -3 6 -1 10 4 10 6 0 11 -4 11 -10z m-317 -35 c16 -11 16
-13 2 -19 -9 -3 -18 1 -22 9 -3 10 -12 13 -24 10 -13 -5 -19 -1 -19 10 0 18
29 13 63 -10z m67 -7 c0 -5 -4 -8 -10 -8 -5 0 -10 10 -10 23 0 18 2 19 10 7 5
-8 10 -18 10 -22z m-213 -20 c-3 -7 -5 -2 -5 12 0 14 2 19 5 13 2 -7 2 -19 0
-25z m53 -10 c0 -4 -6 -8 -12 -8 -7 0 -13 11 -13 25 0 23 1 24 13 8 6 -9 12
-20 12 -25z m430 26 c0 -2 -7 -4 -15 -4 -8 0 -15 4 -15 10 0 5 7 7 15 4 8 -4
15 -8 15 -10z m-532 -3 c10 -6 8 -10 -9 -14 -26 -7 -34 -3 -24 12 7 13 15 14
33 2z m467 -21 c3 -5 1 -10 -4 -10 -6 0 -11 5 -11 10 0 6 2 10 4 10 3 0 8 -4
11 -10z"/>
<path d="M4900 2170 c0 -5 5 -10 10 -10 6 0 10 5 10 10 0 6 -4 10 -10 10 -5 0
-10 -4 -10 -10z"/>
<path d="M4740 2160 c0 -5 5 -10 10 -10 6 0 10 5 10 10 0 6 -4 10 -10 10 -5 0
-10 -4 -10 -10z"/>
<path d="M4955 2140 c4 -6 11 -8 16 -5 14 9 11 15 -7 15 -8 0 -12 -5 -9 -10z"/>
<path d="M4900 2046 c0 -9 5 -16 10 -16 6 0 10 4 10 9 0 6 -4 13 -10 16 -5 3
-10 -1 -10 -9z"/>
<path d="M4860 2000 c0 -5 7 -10 15 -10 8 0 15 5 15 10 0 6 -7 10 -15 10 -8 0
-15 -4 -15 -10z"/>
<path d="M4756 1862 c-3 -6 -1 -14 5 -17 15 -10 25 3 12 16 -7 7 -13 7 -17 1z"/>
<path d="M4840 1840 c0 -5 4 -10 9 -10 6 0 13 5 16 10 3 6 -1 10 -9 10 -9 0
-16 -4 -16 -10z"/>
<path d="M4866 1813 c-11 -11 -6 -23 9 -23 8 0 15 4 15 9 0 13 -16 22 -24 14z"/>
<path d="M5137 1794 c-4 -4 -3 -12 1 -18 4 -6 7 -15 7 -20 0 -5 6 -11 13 -14
12 -4 12 0 1 19 -7 13 -11 26 -10 27 5 7 -6 12 -12 6z"/>
<path d="M5037 1743 c-13 -12 -7 -43 8 -43 8 0 15 6 15 13 0 18 -15 38 -23 30z"/>
<path d="M4880 1730 c0 -5 7 -10 16 -10 8 0 12 5 9 10 -3 6 -10 10 -16 10 -5
0 -9 -4 -9 -10z"/>
<path d="M4942 1668 c6 -18 28 -21 28 -4 0 9 -7 16 -16 16 -9 0 -14 -5 -12
-12z"/>
<path d="M5230 1674 c0 -7 27 -34 34 -34 13 0 5 28 -10 34 -19 7 -24 8 -24 0z"/>
<path d="M4816 1641 c-3 -5 0 -11 8 -14 15 -6 26 1 26 15 0 11 -27 10 -34 -1z"/>
<path d="M4780 1600 c0 -5 5 -10 10 -10 6 0 10 5 10 10 0 6 -4 10 -10 10 -5 0
-10 -4 -10 -10z"/>
<path d="M5010 1590 c0 -5 4 -10 9 -10 6 0 13 5 16 10 3 6 -1 10 -9 10 -9 0
-16 -4 -16 -10z"/>
<path d="M4940 1570 c0 -5 7 -10 15 -10 8 0 15 5 15 10 0 6 -7 10 -15 10 -8 0
-15 -4 -15 -10z"/>
<path d="M4990 1572 c0 -15 25 -62 33 -62 11 0 8 18 -4 26 -8 4 -7 9 2 15 12
8 11 11 -1 19 -18 12 -30 13 -30 2z"/>
<path d="M4920 1530 c0 -5 7 -10 15 -10 8 0 15 5 15 10 0 6 -7 10 -15 10 -8 0
-15 -4 -15 -10z"/>
<path d="M5903 2305 c-3 -9 -3 -18 0 -21 9 -9 27 6 27 22 0 19 -19 18 -27 -1z"/>
<path d="M6000 2280 c0 -5 5 -10 10 -10 6 0 10 5 10 10 0 6 -4 10 -10 10 -5 0
-10 -4 -10 -10z"/>
<path d="M5786 2235 c-3 -9 0 -15 9 -15 8 0 15 7 15 15 0 8 -4 15 -9 15 -5 0
-11 -7 -15 -15z"/>
<path d="M5890 2217 c0 -26 4 -37 15 -37 12 0 14 7 9 28 -11 44 -24 50 -24 9z"/>
<path d="M5936 2243 c-11 -11 -6 -23 9 -23 8 0 15 4 15 9 0 13 -16 22 -24 14z"/>
<path d="M5990 2236 c0 -9 5 -16 10 -16 6 0 10 4 10 9 0 6 -4 13 -10 16 -5 3
-10 -1 -10 -9z"/>
<path d="M6040 2200 c0 -5 5 -10 10 -10 6 0 10 5 10 10 0 6 -4 10 -10 10 -5 0
-10 -4 -10 -10z"/>
<path d="M5975 2179 c-10 -15 3 -25 16 -12 7 7 7 13 1 17 -6 3 -14 1 -17 -5z"/>
<path d="M5843 2145 c-16 -17 -16 -25 -2 -25 11 0 39 24 39 34 0 11 -25 5 -37
-9z"/>
<path d="M5776 2131 c-7 -11 39 -43 48 -34 7 7 -23 43 -35 43 -4 0 -10 -4 -13
-9z"/>
<path d="M5983 1948 c2 -7 9 -12 14 -11 6 1 16 -16 23 -37 7 -22 19 -40 27
-40 7 0 13 4 13 8 0 15 -33 76 -44 84 -18 12 -38 9 -33 -4z"/>
<path d="M5780 1901 c0 -12 6 -21 15 -21 8 0 15 4 15 9 0 5 -7 14 -15 21 -13
10 -15 9 -15 -9z"/>
<path d="M5836 1881 c-4 -7 -5 -15 -2 -18 9 -9 19 4 14 18 -4 11 -6 11 -12 0z"/>
<path d="M5996 1871 c-4 -7 -5 -15 -2 -18 9 -9 19 4 14 18 -4 11 -6 11 -12 0z"/>
<path d="M5830 1830 c0 -8 24 -20 41 -20 22 0 7 25 -16 26 -14 1 -25 -2 -25
-6z"/>
<path d="M1235 2630 c-3 -5 -5 -266 -4 -579 1 -457 3 -572 14 -581 8 -7 70
-10 175 -9 128 2 163 5 169 17 7 12 9 11 14 -3 4 -9 11 -13 17 -10 6 4 10 124
10 333 l0 327 21 -35 c12 -19 51 -91 87 -160 35 -69 92 -177 125 -240 33 -63
68 -132 79 -152 10 -21 22 -38 27 -38 5 0 8 -8 7 -17 -1 -16 12 -18 138 -18
l139 0 43 80 c23 44 100 194 171 333 l128 252 3 -335 2 -335 194 0 194 0 7 83
c3 45 5 309 3 587 l-3 505 -298 3 -299 2 -66 -142 c-37 -78 -101 -212 -143
-298 l-76 -155 -16 35 c-8 19 -59 127 -112 240 -53 113 -109 231 -123 262
l-27 58 -297 0 c-177 0 -299 -4 -303 -10z m301 -21 c4 -8 9 -8 17 0 7 7 60 11
139 11 l128 0 46 -97 c89 -190 104 -225 104 -254 0 -17 5 -29 13 -29 7 0 38
-51 67 -112 30 -62 59 -116 65 -120 17 -13 25 -9 22 10 -3 25 105 252 121 252
8 0 11 7 8 18 -3 9 27 85 69 172 l73 155 131 3 c115 2 131 1 131 -14 0 -8 6
-14 13 -11 6 2 11 9 10 15 -2 6 46 9 138 9 l139 -2 3 -128 c1 -96 -1 -127 -10
-127 -16 0 -17 -27 -2 -32 7 -2 11 -84 10 -263 0 -229 -2 -260 -16 -257 -17 3
-21 -13 -5 -23 6 -4 8 -10 5 -15 -3 -4 1 -12 8 -18 11 -9 13 -30 8 -118 0 -19
-6 -31 -13 -30 -7 0 -14 -3 -15 -9 -1 -5 6 -9 16 -7 15 2 17 -4 15 -40 -1 -24
-3 -45 -4 -48 -1 -3 -2 -8 -1 -12 0 -5 -59 -8 -131 -8 -80 0 -127 4 -119 9 8
5 10 14 6 21 -6 10 -12 8 -23 -6 -10 -13 -16 -15 -19 -6 -7 17 -23 15 -23 -3
0 -8 -9 -15 -20 -15 -18 0 -20 7 -20 70 0 40 4 70 10 70 6 0 10 9 10 20 0 11
-4 20 -10 20 -6 0 -10 95 -10 265 0 169 -4 265 -10 265 -5 0 -37 -55 -71 -122
-34 -68 -65 -125 -69 -128 -4 -3 -10 -18 -15 -35 -5 -19 -9 -25 -13 -15 -8 24
-23 40 -33 35 -4 -3 -1 -21 7 -40 17 -42 5 -78 -23 -68 -13 5 -15 2 -9 -21 5
-20 -1 -42 -25 -87 -26 -48 -37 -59 -57 -59 -19 0 -23 -4 -19 -20 3 -11 1 -18
-4 -14 -12 7 -11 54 1 54 15 0 12 19 -6 38 -15 15 -18 14 -30 -3 -8 -10 -14
-13 -14 -6 0 7 -4 9 -10 6 -5 -3 -10 -1 -10 4 0 6 8 11 18 11 10 0 34 14 52
30 18 17 40 30 47 30 7 0 13 7 13 15 0 21 -19 19 -65 -10 -49 -30 -55 -30 -48
-5 3 13 14 20 29 20 13 0 24 5 24 10 0 13 -67 13 -75 -1 -4 -6 -13 -8 -21 -5
-8 3 -25 1 -39 -4 -31 -12 -35 -50 -5 -50 11 0 20 5 20 10 0 6 9 10 19 10 18
0 19 -3 9 -30 -11 -33 -4 -65 12 -55 6 4 10 -5 10 -20 0 -22 3 -25 23 -21 12
3 16 3 10 0 -7 -3 -13 -20 -13 -37 0 -21 -3 -27 -8 -19 -5 7 -16 10 -25 6 -12
-4 -17 -1 -17 10 0 9 -6 16 -14 16 -7 0 -19 7 -26 15 -7 8 -16 15 -21 15 -5 0
-9 -7 -9 -15 0 -20 -10 -19 -36 6 -21 20 -23 20 -48 4 l-25 -17 2 59 c1 32 5
60 8 63 14 10 22 60 10 60 -6 0 -11 -6 -11 -14 0 -23 -28 -45 -49 -39 -27 7
-30 34 -8 56 21 21 18 41 -8 46 -13 2 -16 -1 -12 -12 3 -9 0 -18 -8 -21 -7 -2
-16 2 -19 10 -10 27 -42 15 -56 -22 l-15 -36 -11 28 c-7 16 -10 34 -7 40 2 7
0 15 -6 19 -13 8 -14 25 -2 25 5 0 13 -9 16 -21 5 -14 12 -18 23 -13 10 3 25
6 35 6 23 -1 22 25 -1 32 -19 6 -26 36 -11 46 12 8 -2 51 -15 47 -6 -2 -10
-12 -8 -21 4 -23 -16 -46 -39 -46 -11 0 -19 -4 -19 -10 0 -5 -4 -10 -9 -10 -5
0 -7 9 -4 20 3 12 -1 22 -10 26 -20 7 -10 41 15 47 24 7 15 27 -13 27 -10 0
-19 5 -19 11 0 6 -9 9 -20 6 -11 -3 -17 -1 -14 4 10 16 -7 49 -25 49 -11 0
-26 18 -41 50 -13 27 -27 47 -32 44 -4 -3 -8 -39 -8 -80 0 -59 -3 -74 -15 -74
-8 0 -15 -5 -15 -10 0 -6 7 -13 15 -16 8 -4 15 -16 15 -29 0 -13 -7 -25 -15
-29 -8 -3 -15 -1 -15 4 0 6 -9 10 -20 10 -11 0 -20 -5 -20 -11 0 -7 -10 -5
-25 5 -32 21 -32 21 -32 -14 0 -46 -18 -58 -42 -29 -11 13 -20 34 -21 47 0 24
-15 30 -23 10 -3 -7 -6 -3 -6 10 -1 12 -6 22 -12 22 -14 0 -6 -105 10 -123 14
-17 -12 -52 -46 -62 -18 -5 -20 -2 -16 15 4 15 1 20 -16 20 -11 0 -21 -6 -21
-14 0 -8 -6 -16 -12 -19 -20 -7 -19 45 0 59 10 7 13 16 8 21 -5 4 -11 2 -13
-5 -16 -45 -22 41 -23 363 l-1 365 140 0 c90 0 142 -4 147 -11z m209 -608 c3
-5 1 -12 -5 -16 -5 -3 -10 1 -10 9 0 18 6 21 15 7z m-141 -111 c-4 -86 -3 -83
-19 -67 -14 14 -9 56 10 87 9 15 10 13 9 -20z m-64 10 c0 -5 -2 -10 -4 -10 -3
0 -8 5 -11 10 -3 6 -1 10 4 10 6 0 11 -4 11 -10z m-50 -42 c0 -5 13 -7 30 -3
29 6 30 5 24 -23 -5 -24 -2 -32 16 -42 12 -6 27 -9 35 -7 8 4 11 -1 8 -12 -5
-20 -33 -24 -33 -5 0 8 -11 16 -24 20 -15 3 -27 16 -30 30 -5 19 -11 24 -26
19 -12 -4 -20 -2 -20 4 0 6 -4 11 -10 11 -5 0 -10 -8 -10 -17 0 -15 -2 -16
-10 -3 -14 21 -12 30 5 30 8 0 15 4 15 10 0 5 7 7 15 4 8 -4 15 -11 15 -16z
m389 -112 c-9 -8 -10 -7 -5 7 3 10 7 28 7 40 2 16 3 14 6 -7 3 -16 -1 -34 -8
-40z m-559 37 c-1 -24 -39 -38 -56 -20 -4 4 2 7 14 7 12 0 22 5 22 10 0 6 5
10 10 10 6 0 10 -3 10 -7z m69 -32 c11 -20 5 -31 -16 -31 -7 0 -13 11 -13 25
0 29 15 33 29 6z m161 -22 c0 -11 -4 -17 -10 -14 -5 3 -10 13 -10 21 0 8 5 14
10 14 6 0 10 -9 10 -21z m428 -1 c17 -17 15 -28 -7 -28 -10 0 -30 -12 -45 -27
-16 -16 -24 -20 -20 -10 4 11 0 19 -10 23 -24 9 -21 43 4 37 11 -3 20 -12 20
-20 0 -8 5 -11 10 -8 8 5 8 11 1 19 -21 25 24 37 47 14z m-616 -40 c-7 -7 -12
-8 -12 -2 0 6 3 14 7 17 3 4 9 5 12 2 2 -3 -1 -11 -7 -17z m108 -9 c0 -6 -4
-7 -10 -4 -5 3 -10 11 -10 16 0 6 5 7 10 4 6 -3 10 -11 10 -16z m-163 -12 c2
-3 -1 -16 -8 -29 -11 -20 -14 -20 -17 -5 -2 9 -10 17 -18 17 -8 0 -14 6 -14
14 0 12 45 15 57 3z m744 -70 c-8 -8 -11 -7 -11 4 0 9 3 19 7 23 4 4 9 2 11
-4 3 -7 -1 -17 -7 -23z m-47 -6 c4 -5 2 -20 -3 -33 -11 -26 -13 -24 -15 15 -2
27 7 36 18 18z m164 -22 c2 -5 8 -7 12 -4 5 3 11 2 14 -3 8 -13 -39 -66 -52
-58 -17 10 -15 26 3 26 8 0 15 5 15 10 0 6 -6 10 -14 10 -8 0 -21 3 -30 6 -12
5 -15 -1 -14 -30 1 -20 -2 -39 -5 -43 -13 -12 -7 67 6 88 9 15 18 18 37 14 14
-4 27 -11 28 -16z m-704 -4 c3 -8 1 -15 -4 -15 -6 0 -10 7 -10 15 0 8 2 15 4
15 2 0 6 -7 10 -15z m556 -45 c0 -5 -7 -10 -16 -10 -8 0 -12 5 -9 10 3 6 10
10 16 10 5 0 9 -4 9 -10z m-690 -10 c0 -5 -5 -10 -11 -10 -5 0 -7 5 -4 10 3 6
8 10 11 10 2 0 4 -4 4 -10z m720 -14 c0 -3 -4 -8 -10 -11 -5 -3 -10 -1 -10 4
0 6 5 11 10 11 6 0 10 -2 10 -4z"/>
<path d="M1535 2541 c-6 -11 9 -23 19 -14 9 9 7 23 -3 23 -6 0 -12 -4 -16 -9z"/>
<path d="M2745 2539 c-10 -15 3 -25 16 -12 7 7 7 13 1 17 -6 3 -14 1 -17 -5z"/>
<path d="M2880 2496 c0 -9 7 -16 16 -16 17 0 14 22 -4 28 -7 2 -12 -3 -12 -12z"/>
<path d="M2470 2487 c0 -8 7 -18 16 -21 11 -4 14 -1 12 11 -4 21 -28 30 -28
10z"/>
<path d="M1700 2451 c0 -11 4 -21 9 -21 18 0 21 18 6 30 -13 10 -15 9 -15 -9z"/>
<path d="M1834 2438 c4 -37 14 -44 40 -25 16 12 17 16 5 35 -8 12 -22 22 -31
22 -14 0 -17 -7 -14 -32z"/>
<path d="M2526 2463 c-11 -11 -6 -23 9 -23 8 0 15 4 15 9 0 13 -16 22 -24 14z"/>
<path d="M1746 2452 c-3 -6 -1 -14 5 -17 15 -10 25 3 12 16 -7 7 -13 7 -17 1z"/>
<path d="M1794 2446 c-4 -10 -2 -22 4 -28 8 -8 13 -7 18 6 4 10 2 22 -4 28 -8
8 -13 7 -18 -6z"/>
<path d="M1570 2425 c0 -8 5 -15 10 -15 6 0 10 7 10 15 0 8 -4 15 -10 15 -5 0
-10 -7 -10 -15z"/>
<path d="M2350 2420 c0 -5 5 -10 10 -10 6 0 10 5 10 10 0 6 -4 10 -10 10 -5 0
-10 -4 -10 -10z"/>
<path d="M2800 2414 c0 -8 5 -12 10 -9 6 4 8 11 5 16 -9 14 -15 11 -15 -7z"/>
<path d="M1660 2390 c0 -5 5 -10 10 -10 6 0 10 5 10 10 0 6 -4 10 -10 10 -5 0
-10 -4 -10 -10z"/>
<path d="M1706 2382 c-3 -6 -1 -14 5 -17 15 -10 25 3 12 16 -7 7 -13 7 -17 1z"/>
<path d="M2731 2381 c-10 -6 -10 -10 -1 -16 13 -8 24 -1 19 14 -3 6 -10 7 -18
2z"/>
<path d="M1914 2334 c3 -9 6 -20 6 -25 0 -5 7 -9 15 -9 8 0 15 5 15 10 0 6 -4
10 -10 10 -5 0 -7 7 -4 15 4 10 0 15 -11 15 -12 0 -15 -5 -11 -16z"/>
<path d="M2795 2329 c-4 -6 -5 -13 -2 -16 7 -7 27 6 27 18 0 12 -17 12 -25 -2z"/>
<path d="M1420 2275 c0 -8 5 -15 10 -15 6 0 10 7 10 15 0 8 -4 15 -10 15 -5 0
-10 -7 -10 -15z"/>
<path d="M1850 2270 c0 -5 4 -10 9 -10 6 0 13 5 16 10 3 6 -1 10 -9 10 -9 0
-16 -4 -16 -10z"/>
<path d="M1916 2271 c-4 -5 -2 -12 3 -15 5 -4 12 -2 15 3 4 5 2 12 -3 15 -5 4
-12 2 -15 -3z"/>
<path d="M2810 2246 c0 -9 5 -16 10 -16 6 0 10 4 10 9 0 6 -4 13 -10 16 -5 3
-10 -1 -10 -9z"/>
<path d="M1947 2233 c-8 -14 -1 -58 9 -55 5 2 7 15 6 30 -4 31 -8 37 -15 25z"/>
<path d="M1855 2210 c-7 -12 2 -30 16 -30 12 0 12 27 0 35 -5 3 -12 1 -16 -5z"/>
<path d="M1644 2188 c-6 -10 -6 -9 29 -14 18 -2 27 2 27 11 0 15 -47 17 -56 3z"/>
<path d="M1765 2190 c-3 -5 1 -10 9 -10 9 0 16 5 16 10 0 6 -4 10 -9 10 -6 0
-13 -4 -16 -10z"/>
<path d="M2440 2190 c0 -5 5 -10 10 -10 6 0 10 5 10 10 0 6 -4 10 -10 10 -5 0
-10 -4 -10 -10z"/>
<path d="M2270 2175 c0 -8 5 -15 10 -15 6 0 10 7 10 15 0 8 -4 15 -10 15 -5 0
-10 -7 -10 -15z"/>
<path d="M1277 2166 c-6 -16 2 -28 14 -20 12 7 11 34 0 34 -5 0 -11 -6 -14
-14z"/>
<path d="M2240 2165 c0 -8 5 -15 10 -15 6 0 10 7 10 15 0 8 -4 15 -10 15 -5 0
-10 -7 -10 -15z"/>
<path d="M2340 2170 c0 -5 5 -10 10 -10 6 0 10 5 10 10 0 6 -4 10 -10 10 -5 0
-10 -4 -10 -10z"/>
<path d="M1830 2160 c0 -5 5 -10 10 -10 6 0 10 5 10 10 0 6 -4 10 -10 10 -5 0
-10 -4 -10 -10z"/>
<path d="M1386 2144 c-7 -19 1 -34 19 -34 8 0 11 7 8 20 -7 27 -20 34 -27 14z"/>
<path d="M2630 2150 c0 -5 5 -10 10 -10 6 0 10 5 10 10 0 6 -4 10 -10 10 -5 0
-10 -4 -10 -10z"/>
<path d="M2000 2130 c0 -5 7 -10 15 -10 8 0 15 5 15 10 0 6 -7 10 -15 10 -8 0
-15 -4 -15 -10z"/>
<path d="M2260 2132 c0 -5 9 -17 20 -27 23 -21 28 -2 6 21 -16 16 -26 18 -26
6z"/>
<path d="M1740 2101 c0 -6 5 -13 10 -16 6 -3 10 1 10 9 0 9 -4 16 -10 16 -5 0
-10 -4 -10 -9z"/>
<path d="M1775 2091 c-6 -11 9 -23 19 -14 9 9 7 23 -3 23 -6 0 -12 -4 -16 -9z"/>
<path d="M2240 2080 c0 -11 5 -20 10 -20 6 0 10 9 10 20 0 11 -4 20 -10 20 -5
0 -10 -9 -10 -20z"/>
<path d="M2340 2090 c0 -5 4 -10 9 -10 6 0 13 5 16 10 3 6 -1 10 -9 10 -9 0
-16 -4 -16 -10z"/>
<path d="M1492 2079 c2 -6 8 -10 13 -10 5 0 11 4 13 10 2 6 -4 11 -13 11 -9 0
-15 -5 -13 -11z"/>
<path d="M2196 2081 c-4 -7 -5 -15 -2 -18 9 -9 19 4 14 18 -4 11 -6 11 -12 0z"/>
<path d="M2450 2075 c0 -8 5 -15 10 -15 6 0 10 7 10 15 0 8 -4 15 -10 15 -5 0
-10 -7 -10 -15z"/>
<path d="M1550 2066 c0 -15 37 -32 47 -23 8 9 -7 28 -18 22 -5 -4 -9 -1 -9 4
0 6 -4 11 -10 11 -5 0 -10 -6 -10 -14z"/>
<path d="M1801 2066 c-12 -14 -11 -19 9 -36 27 -24 60 -26 60 -5 0 8 -6 15
-14 15 -7 0 -20 10 -28 21 -12 19 -15 20 -27 5z"/>
<path d="M1920 2055 c0 -8 -7 -15 -15 -15 -8 0 -15 -7 -15 -15 0 -21 11 -18
38 9 18 20 19 25 7 30 -9 3 -15 0 -15 -9z"/>
<path d="M2160 2055 c0 -8 5 -15 10 -15 6 0 10 7 10 15 0 8 -4 15 -10 15 -5 0
-10 -7 -10 -15z"/>
<path d="M1395 2039 c-10 -15 3 -25 16 -12 7 7 7 13 1 17 -6 3 -14 1 -17 -5z"/>
<path d="M1460 2040 c0 -5 4 -10 9 -10 6 0 13 5 16 10 3 6 -1 10 -9 10 -9 0
-16 -4 -16 -10z"/>
<path d="M2310 2031 c0 -17 18 -21 24 -6 3 9 0 15 -9 15 -8 0 -15 -4 -15 -9z"/>
<path d="M2350 2030 c0 -5 9 -10 20 -10 11 0 20 5 20 10 0 6 -9 10 -20 10 -11
0 -20 -4 -20 -10z"/>
<path d="M1260 2016 c0 -8 5 -18 10 -21 6 -3 10 3 10 14 0 12 -4 21 -10 21 -5
0 -10 -6 -10 -14z"/>
<path d="M2250 2021 c0 -6 5 -13 10 -16 6 -3 10 1 10 9 0 9 -4 16 -10 16 -5 0
-10 -4 -10 -9z"/>
<path d="M1556 2003 c-11 -11 -6 -23 9 -23 8 0 15 4 15 9 0 13 -16 22 -24 14z"/>
<path d="M2380 2000 c0 -5 4 -10 9 -10 6 0 13 5 16 10 3 6 -1 10 -9 10 -9 0
-16 -4 -16 -10z"/>
<path d="M2290 1990 c0 -5 5 -10 10 -10 6 0 10 5 10 10 0 6 -4 10 -10 10 -5 0
-10 -4 -10 -10z"/>
<path d="M2210 1971 c0 -22 15 -35 30 -26 7 4 7 13 0 26 -14 25 -30 25 -30 0z"/>
<path d="M2885 1979 c-10 -15 3 -25 16 -12 7 7 7 13 1 17 -6 3 -14 1 -17 -5z"/>
<path d="M1960 1970 c0 -5 5 -10 10 -10 6 0 10 5 10 10 0 6 -4 10 -10 10 -5 0
-10 -4 -10 -10z"/>
<path d="M2150 1973 c1 -14 30 -47 36 -41 8 8 -14 48 -26 48 -6 0 -10 -3 -10
-7z"/>
<path d="M2022 1959 c2 -6 8 -10 13 -10 5 0 11 4 13 10 2 6 -4 11 -13 11 -9 0
-15 -5 -13 -11z"/>
<path d="M1326 1951 c-4 -5 -2 -12 3 -15 5 -4 12 -2 15 3 4 5 2 12 -3 15 -5 4
-12 2 -15 -3z"/>
<path d="M1886 1934 c-4 -9 -5 -19 -3 -21 8 -8 37 10 37 23 0 19 -26 18 -34
-2z"/>
<path d="M2360 1935 c0 -8 7 -15 15 -15 8 0 15 7 15 15 0 8 -7 15 -15 15 -8 0
-15 -7 -15 -15z"/>
<path d="M2287 1912 c-12 -62 -12 -66 7 -70 11 -2 16 0 12 7 -4 6 4 15 18 21
38 14 30 60 -12 67 -15 2 -21 -5 -25 -25z"/>
<path d="M2220 1915 c0 -8 5 -15 10 -15 6 0 10 7 10 15 0 8 -4 15 -10 15 -5 0
-10 -7 -10 -15z"/>
<path d="M1320 1906 c0 -9 5 -16 10 -16 6 0 10 4 10 9 0 6 -4 13 -10 16 -5 3
-10 -1 -10 -9z"/>
<path d="M2140 1905 c-10 -13 -9 -15 9 -15 11 0 21 4 21 9 0 18 -18 21 -30 6z"/>
<path d="M2930 1904 c0 -8 5 -12 10 -9 6 3 10 10 10 16 0 5 -4 9 -10 9 -5 0
-10 -7 -10 -16z"/>
<path d="M2365 1890 c3 -5 10 -10 16 -10 5 0 9 5 9 10 0 6 -7 10 -16 10 -8 0
-12 -4 -9 -10z"/>
<path d="M2342 1849 c2 -7 10 -15 17 -17 8 -3 12 1 9 9 -2 7 -10 15 -17 17 -8
3 -12 -1 -9 -9z"/>
<path d="M2380 1850 c0 -5 5 -10 10 -10 6 0 10 5 10 10 0 6 -4 10 -10 10 -5 0
-10 -4 -10 -10z"/>
<path d="M2030 1835 c0 -9 5 -15 11 -13 6 2 11 8 11 13 0 5 -5 11 -11 13 -6 2
-11 -4 -11 -13z"/>
<path d="M2077 1843 c-13 -12 -7 -33 8 -33 8 0 15 9 15 20 0 20 -11 26 -23 13z"/>
<path d="M2146 1842 c-3 -6 -1 -14 5 -17 15 -10 25 3 12 16 -7 7 -13 7 -17 1z"/>
<path d="M2863 1790 c0 -16 4 -30 9 -30 4 0 8 3 8 8 0 4 3 17 6 30 5 15 2 22
-8 22 -10 0 -15 -10 -15 -30z"/>
<path d="M2037 1783 c-12 -11 -8 -23 8 -23 8 0 15 7 15 15 0 16 -12 20 -23 8z"/>
<path d="M2640 1755 c0 -9 5 -15 11 -13 6 2 11 8 11 13 0 5 -5 11 -11 13 -6 2
-11 -4 -11 -13z"/>
<path d="M2897 1764 c-8 -8 1 -24 14 -24 5 0 9 7 9 15 0 15 -12 20 -23 9z"/>
<path d="M2060 1742 c0 -5 7 -23 16 -40 16 -33 15 -32 63 -5 10 6 -22 31 -35
26 -7 -3 -17 2 -20 11 -6 17 -24 22 -24 8z"/>
<path d="M2330 1730 c0 -5 -6 -10 -14 -10 -22 0 -26 -13 -10 -35 14 -19 15
-19 20 2 3 12 12 24 20 27 19 7 18 26 -1 26 -8 0 -15 -4 -15 -10z"/>
<path d="M2910 1705 c0 -8 4 -15 9 -15 5 0 11 7 15 15 3 9 0 15 -9 15 -8 0
-15 -7 -15 -15z"/>
<path d="M2150 1695 c0 -8 5 -15 10 -15 6 0 10 7 10 15 0 8 -4 15 -10 15 -5 0
-10 -7 -10 -15z"/>
<path d="M2030 1685 c0 -8 5 -15 10 -15 6 0 10 7 10 15 0 8 -4 15 -10 15 -5 0
-10 -7 -10 -15z"/>
<path d="M2167 1664 c-14 -15 -6 -34 14 -34 14 0 19 5 17 17 -3 18 -20 27 -31
17z"/>
<path d="M2860 1626 c0 -9 5 -16 10 -16 6 0 10 4 10 9 0 6 -4 13 -10 16 -5 3
-10 -1 -10 -9z"/>
<path d="M2900 1625 c0 -8 5 -15 10 -15 6 0 10 7 10 15 0 8 -4 15 -10 15 -5 0
-10 -7 -10 -15z"/>
<path d="M2643 1567 c-13 -16 -14 -55 -2 -62 5 -4 9 3 9 14 0 12 5 21 10 21
12 0 13 27 1 34 -5 3 -13 0 -18 -7z"/>
<path d="M2913 1528 c2 -7 10 -13 17 -13 7 0 15 6 18 13 2 7 -5 12 -18 12 -13
0 -20 -5 -17 -12z"/>
<path d="M2814 1519 c-7 -12 12 -29 33 -29 21 0 24 19 4 29 -25 14 -28 14 -37
0z"/>
<path d="M3040 2178 c0 -348 3 -467 12 -476 9 -9 9 -12 1 -12 -8 0 -11 -34
-10 -112 l2 -113 202 -2 c111 -2 204 1 207 6 3 4 6 137 6 295 l1 287 37 -30
c20 -16 55 -45 77 -66 22 -20 64 -57 94 -83 61 -54 107 -95 171 -156 25 -23
65 -59 90 -80 25 -21 77 -69 117 -106 l72 -68 235 -1 c129 0 237 3 240 8 7 10
-46 60 -253 236 -181 154 -182 156 -110 169 47 8 120 55 153 99 44 58 70 182
63 307 -7 142 -27 203 -86 261 -35 36 -63 52 -116 70 -69 23 -75 23 -637 27
l-568 3 0 -463z m1175 420 c103 -31 155 -75 186 -157 53 -142 25 -408 -49
-474 -11 -11 -26 -16 -32 -12 -7 4 -13 -1 -16 -11 -5 -20 -57 -48 -107 -59
-25 -5 -28 -3 -22 15 5 14 2 20 -9 20 -9 0 -16 -8 -16 -19 0 -11 -4 -21 -9
-23 -4 -1 -12 -14 -16 -26 -6 -20 -4 -23 12 -18 13 4 28 -3 48 -24 24 -25 26
-30 12 -36 -10 -3 -17 -15 -17 -25 0 -21 16 -26 22 -7 7 20 47 15 70 -9 19
-20 19 -23 4 -17 -14 5 -17 3 -15 -11 4 -19 49 -32 49 -14 0 15 117 -82 123
-102 2 -10 20 -24 39 -33 19 -9 48 -30 63 -46 l29 -30 -102 0 c-100 0 -102 1
-102 23 0 13 -5 28 -12 35 -9 9 -9 12 1 12 15 0 5 41 -13 52 -7 5 -3 8 9 8 13
0 16 3 9 10 -13 13 -44 3 -44 -14 0 -6 4 -18 10 -26 5 -9 5 -19 -2 -27 -7 -9
-6 -20 6 -38 9 -13 16 -27 16 -30 0 -10 -69 -5 -76 6 -4 8 -9 8 -17 0 -6 -6
-32 -11 -59 -11 -36 0 -46 3 -42 14 3 8 1 17 -5 21 -17 10 -13 25 5 18 14 -5
16 -2 10 21 -4 17 -3 25 3 22 5 -4 13 -1 17 5 3 6 0 15 -7 20 -10 6 -8 9 10 9
16 0 21 -4 18 -15 -8 -19 13 -31 24 -14 5 9 10 0 15 -29 4 -23 10 -42 15 -42
5 0 9 4 9 10 0 5 7 7 15 4 10 -4 15 0 15 11 0 11 -5 15 -15 11 -9 -3 -15 0
-15 8 0 8 7 16 15 20 22 8 18 26 -5 26 -15 0 -20 7 -20 25 0 27 -17 34 -26 10
-4 -8 -10 -15 -15 -15 -4 0 -6 7 -3 15 7 17 -4 19 -40 6 -18 -8 -23 -15 -19
-30 4 -15 1 -21 -11 -21 -10 0 -13 -6 -10 -17 5 -14 4 -15 -4 -4 -6 8 -7 21
-2 30 5 9 11 28 15 43 3 16 10 27 16 25 18 -4 20 17 4 38 -13 17 -16 18 -25 5
-6 -9 -10 -10 -10 -3 0 6 4 14 10 18 13 8 1 35 -16 35 -15 0 -16 -5 -17 -63 0
-26 -3 -34 -8 -25 -7 11 -11 10 -19 -2 -12 -19 -13 -30 0 -30 5 0 7 -7 3 -16
-4 -11 -8 -12 -13 -4 -4 6 -11 10 -16 9 -5 -1 -13 0 -19 1 -5 2 -21 3 -35 4
-19 1 -24 6 -22 20 2 10 -2 23 -10 27 -9 6 -6 9 10 9 14 0 21 -4 17 -10 -4 -6
-4 -18 -1 -26 9 -24 45 4 38 30 -5 20 -4 20 15 3 20 -17 21 -17 32 10 15 38
18 67 7 73 -5 3 -10 -5 -11 -17 -2 -33 -12 -38 -25 -14 -6 12 -18 21 -28 21
-14 0 -12 4 7 19 18 14 21 20 10 26 -7 5 -14 4 -17 -3 -2 -7 -10 -12 -18 -12
-10 0 -13 -11 -11 -40 2 -22 2 -40 0 -40 -1 0 -9 12 -17 28 -12 23 -12 30 0
46 9 14 11 23 3 32 -7 8 -7 14 1 19 5 3 10 -1 10 -9 0 -9 6 -16 13 -16 8 0 12
21 13 70 2 67 1 70 -21 70 -13 0 -27 5 -30 10 -3 6 1 10 9 10 9 0 16 5 16 10
0 6 -4 10 -9 10 -5 0 -16 3 -25 6 -11 4 -16 1 -16 -10 0 -9 -7 -16 -15 -16 -8
0 -15 -4 -15 -10 0 -5 8 -10 18 -10 13 0 14 -2 3 -9 -8 -5 -11 -16 -6 -30 5
-18 3 -22 -12 -19 -17 3 -19 -1 -22 -46 -1 -13 -4 -16 -13 -9 -7 6 -23 9 -36
8 -27 -2 -41 38 -23 66 16 27 14 33 -19 52 -29 17 -30 17 -52 -2 -21 -20 -21
-21 -3 -41 20 -23 16 -34 -9 -24 -9 3 -15 14 -14 23 2 12 -4 15 -21 13 -35 -4
-37 -9 -10 -31 13 -11 22 -22 19 -25 -7 -7 -135 109 -136 123 -1 6 -2 15 -3
20 0 5 -9 7 -20 4 -13 -3 -20 2 -24 17 -3 12 -14 24 -25 27 -14 3 -18 11 -15
24 3 10 0 19 -6 19 -6 0 -11 -5 -11 -10 0 -6 -11 -15 -25 -20 -24 -9 -34 -35
-16 -42 5 -2 6 -25 3 -53 l-6 -50 -6 38 c-6 48 -25 48 -24 0 1 -30 0 -33 -9
-17 -6 10 -19 28 -29 39 -16 17 -20 18 -28 5 -7 -10 -5 -18 5 -26 8 -6 15 -16
15 -23 0 -6 4 -11 9 -11 5 0 7 -9 4 -20 -3 -11 0 -20 6 -20 6 0 11 7 11 15 0
9 9 15 22 15 l21 0 -22 -24 c-27 -28 -44 -25 -60 10 -6 14 -16 22 -21 19 -13
-8 -13 -35 0 -35 6 0 10 -7 10 -15 0 -8 9 -15 19 -15 11 0 23 -4 26 -10 3 -5
1 -10 -4 -10 -6 0 -11 -4 -11 -10 0 -20 27 -9 40 16 8 14 22 30 32 35 16 9 18
5 18 -34 0 -23 -5 -48 -11 -54 -6 -6 -8 -17 -4 -24 15 -23 15 -81 0 -95 -20
-20 -27 -17 -15 6 11 21 6 40 -11 40 -5 0 -9 -6 -9 -14 0 -8 -4 -16 -9 -18 -5
-2 -13 -15 -16 -30 -6 -21 -4 -28 8 -28 10 0 13 -6 10 -21 -4 -15 0 -22 16
-26 11 -3 21 -9 21 -14 0 -12 -17 -11 -25 1 -9 15 -27 1 -21 -16 6 -16 -5 -19
-20 -4 -6 6 -15 6 -24 -1 -13 -8 -12 -11 4 -24 12 -9 15 -15 7 -15 -8 0 -11
-8 -8 -20 9 -34 -8 -22 -18 13 -12 39 7 89 30 80 9 -3 15 1 15 11 0 9 -8 16
-18 16 -26 0 -34 11 -20 28 10 11 9 16 -5 23 -9 6 -17 19 -17 31 0 18 2 19 16
7 14 -11 18 -10 30 6 10 13 11 22 4 29 -8 8 -14 6 -20 -4 -5 -8 -12 -11 -15
-8 -10 10 4 28 21 28 8 0 14 7 14 16 0 12 -7 15 -26 11 -20 -3 -28 0 -31 14
-6 22 -19 25 -26 7 -8 -22 -27 5 -32 45 -3 20 -5 40 -6 44 -3 20 2 23 22 13
16 -9 18 -14 8 -26 -16 -19 -4 -30 16 -14 19 16 19 34 0 50 -12 10 -13 16 -3
28 18 22 19 72 1 79 -8 3 -19 0 -24 -8 -5 -8 -9 -10 -9 -5 0 5 -7 3 -15 -4 -8
-7 -25 -10 -39 -6 -26 6 -44 -8 -25 -20 21 -13 63 -13 71 -1 5 8 8 6 8 -5 0
-10 -4 -18 -10 -18 -5 0 -10 -6 -10 -14 0 -20 -43 -29 -53 -11 -4 8 -15 21
-23 30 -12 11 -14 23 -7 43 4 15 7 43 5 63 -3 32 -7 37 -33 41 -16 3 -32 1
-35 -4 -8 -12 0 -19 23 -22 10 -2 18 -9 18 -17 0 -8 -6 -13 -12 -11 -8 1 -13
-8 -13 -23 0 -18 -4 -23 -15 -19 -12 5 -15 24 -15 85 0 74 12 102 26 64 10
-25 27 -17 22 10 -4 20 -2 23 7 15 9 -8 15 -8 20 0 8 13 -39 60 -61 60 -12 0
-14 30 -14 186 l0 185 553 -4 c460 -3 560 -6 602 -19z m-1140 -378 c3 -5 1
-10 -4 -10 -6 0 -11 5 -11 10 0 6 2 10 4 10 3 0 8 -4 11 -10z m27 -254 c3 2 8
-2 11 -10 4 -10 1 -13 -9 -10 -7 2 -21 6 -30 9 -8 3 -12 10 -9 15 5 8 11 8 19
1 7 -6 15 -8 18 -5z m679 -57 c-9 -22 -10 -22 -10 -3 -1 11 2 24 6 27 12 12
14 0 4 -24z m-681 6 c8 5 7 0 -1 -13 -7 -12 -9 -27 -4 -38 8 -18 9 -17 12 4 3
12 9 22 14 22 5 0 9 8 9 18 0 13 2 14 9 3 5 -7 14 -10 20 -6 30 18 68 -50 43
-77 -19 -22 -32 -23 -32 -3 0 24 -27 18 -34 -7 -9 -36 -7 -41 9 -28 19 16 19
1 0 -24 -12 -16 -17 -17 -30 -6 -8 7 -13 16 -10 20 7 11 -16 63 -32 73 -7 4
-13 24 -13 44 0 30 2 34 15 23 8 -6 19 -9 25 -5z m645 -55 c3 -5 1 -10 -4 -10
-6 0 -11 5 -11 10 0 6 2 10 4 10 3 0 8 -4 11 -10z m44 -50 l-1 -25 -8 25 c-4
14 -8 32 -9 40 -1 13 0 13 9 0 5 -8 9 -26 9 -40z m146 11 c-7 -25 -20 -27 -29
-6 -3 9 0 15 9 15 8 0 15 5 15 12 0 6 3 9 6 5 3 -3 3 -15 -1 -26z m-95 -12 c0
-6 -4 -7 -10 -4 -5 3 -10 11 -10 16 0 6 5 7 10 4 6 -3 10 -11 10 -16z m-576
-45 c3 -9 6 -16 6 -17 0 -1 -16 -2 -37 -2 -22 0 -38 -5 -41 -14 -3 -10 1 -12
17 -8 14 3 21 0 21 -9 0 -8 -9 -14 -19 -14 -11 0 -23 -5 -26 -10 -12 -19 -26
0 -15 20 5 10 7 26 4 34 -6 15 9 20 54 19 6 -1 12 3 12 8 0 15 17 10 24 -7z
m-134 -52 c0 -3 -3 -2 -7 1 -3 4 -12 2 -19 -4 -9 -8 -15 -5 -23 9 -6 11 -8 22
-5 25 7 6 54 -21 54 -31z m147 1 c-9 -9 -19 -14 -23 -11 -10 10 6 28 24 28 15
0 15 -1 -1 -17z m628 -4 c12 -19 -5 -23 -22 -6 -16 16 -16 17 -1 17 9 0 20 -5
23 -11z m-771 -24 c3 -8 1 -15 -4 -15 -6 0 -10 7 -10 15 0 8 2 15 4 15 2 0 6
-7 10 -15z m130 -24 c3 -5 0 -11 -8 -14 -8 -3 -17 1 -20 9 -6 15 19 20 28 5z
m176 -37 c0 -2 -7 -4 -15 -4 -8 0 -15 4 -15 10 0 5 7 7 15 4 8 -4 15 -8 15
-10z m-182 -13 c7 -2 -27 -31 -37 -31 -6 0 -11 8 -11 19 0 13 6 18 23 16 12
-1 23 -3 25 -4z m787 -19 c0 -18 -20 -15 -23 4 -3 10 1 15 10 12 7 -3 13 -10
13 -16z m-945 -12 c0 -5 -2 -10 -4 -10 -3 0 -8 5 -11 10 -3 6 -1 10 4 10 6 0
11 -4 11 -10z m980 -30 c0 -5 -4 -10 -10 -10 -5 0 -10 5 -10 10 0 6 5 10 10
10 6 0 10 -4 10 -10z m-905 -20 c3 -5 1 -10 -4 -10 -6 0 -11 5 -11 10 0 6 2
10 4 10 3 0 8 -4 11 -10z m945 -26 c0 -8 -4 -12 -10 -9 -5 3 -10 10 -10 16 0
5 5 9 10 9 6 0 10 -7 10 -16z m-830 -8 c0 -3 -4 -8 -10 -11 -5 -3 -10 -1 -10
4 0 6 5 11 10 11 6 0 10 -2 10 -4z"/>
<path d="M4030 2506 c0 -9 5 -16 10 -16 6 0 10 4 10 9 0 6 -4 13 -10 16 -5 3
-10 -1 -10 -9z"/>
<path d="M3740 2446 c0 -8 5 -18 10 -21 6 -3 10 1 10 9 0 8 -4 18 -10 21 -5 3
-10 -1 -10 -9z"/>
<path d="M4030 2390 c0 -5 4 -10 9 -10 6 0 13 5 16 10 3 6 -1 10 -9 10 -9 0
-16 -4 -16 -10z"/>
<path d="M4190 2334 c0 -8 5 -12 10 -9 6 3 10 10 10 16 0 5 -4 9 -10 9 -5 0
-10 -7 -10 -16z"/>
<path d="M4240 2340 c0 -5 4 -10 9 -10 6 0 13 5 16 10 3 6 -1 10 -9 10 -9 0
-16 -4 -16 -10z"/>
<path d="M4052 2329 c2 -6 8 -10 13 -10 5 0 11 4 13 10 2 6 -4 11 -13 11 -9 0
-15 -5 -13 -11z"/>
<path d="M3439 2263 c-1 -56 -2 -62 -13 -85 -4 -9 -6 -27 -4 -39 l3 -23 163 3
c116 2 167 -1 178 -10 10 -8 14 -8 14 0 0 7 25 11 70 11 40 0 70 -4 70 -10 0
-5 7 -10 15 -10 8 0 15 4 15 9 0 5 21 11 48 15 44 6 49 9 66 49 22 50 14 80
-27 111 -27 20 -42 21 -313 24 l-284 3 -1 -48z m595 -2 c33 -31 33 -53 -1 -91
l-28 -30 -245 -1 c-135 0 -257 0 -272 1 l-28 0 0 75 0 76 274 -3 274 -3 26
-24z"/>
<path d="M4080 2270 c0 -5 5 -10 10 -10 6 0 10 5 10 10 0 6 -4 10 -10 10 -5 0
-10 -4 -10 -10z"/>
<path d="M3237 2254 c-11 -12 -8 -24 7 -24 8 0 13 -7 12 -16 0 -9 5 -19 12
-21 6 -3 12 1 12 9 -1 19 -34 60 -43 52z"/>
<path d="M4150 2224 c0 -8 6 -14 14 -14 8 0 16 -4 18 -9 5 -15 40 -17 45 -3 3
6 -2 12 -11 12 -9 0 -15 5 -13 12 1 6 -10 13 -25 14 -19 2 -28 -2 -28 -12z"/>
<path d="M4090 2210 c0 -11 5 -20 10 -20 6 0 10 -6 10 -13 0 -9 12 -14 30 -15
17 0 28 4 25 9 -4 5 -15 9 -26 9 -12 0 -19 7 -19 19 0 10 -7 21 -15 25 -10 4
-15 -1 -15 -14z"/>
<path d="M3230 2168 c0 -7 4 -19 9 -27 11 -17 25 3 17 24 -7 18 -26 20 -26 3z"/>
<path d="M3320 2165 c0 -8 5 -15 10 -15 6 0 10 7 10 15 0 8 -4 15 -10 15 -5 0
-10 -7 -10 -15z"/>
<path d="M4065 2150 c-3 -5 1 -10 9 -10 9 0 16 5 16 10 0 6 -4 10 -9 10 -6 0
-13 -4 -16 -10z"/>
<path d="M4210 2150 c0 -13 28 -25 38 -16 3 4 0 11 -8 16 -20 13 -30 12 -30 0z"/>
<path d="M4247 2105 c-8 -20 2 -45 18 -45 9 0 13 10 11 27 -4 31 -21 42 -29
18z"/>
<path d="M3990 2095 c-16 -20 -8 -29 19 -20 12 4 18 12 14 21 -7 18 -17 18
-33 -1z"/>
<path d="M3181 2087 c10 -8 14 -23 12 -44 -6 -45 14 -42 23 3 7 37 -4 54 -36
54 -13 -1 -13 -2 1 -13z"/>
<path d="M3832 2088 c-7 -7 -12 -18 -12 -25 0 -18 27 -16 34 2 3 8 12 12 19 9
8 -3 17 2 20 10 5 12 0 16 -21 16 -16 0 -33 -5 -40 -12z"/>
<path d="M3372 2074 c-21 -23 -3 -38 19 -15 10 11 19 23 19 26 0 11 -25 4 -38
-11z"/>
<path d="M3166 2063 c-9 -9 -7 -33 3 -33 12 0 22 28 12 34 -5 3 -11 3 -15 -1z"/>
<path d="M3310 2055 c0 -8 7 -15 15 -15 8 0 15 -4 15 -10 0 -5 5 -10 10 -10
16 0 12 22 -7 36 -24 18 -33 17 -33 -1z"/>
<path d="M3946 2063 c-11 -11 -6 -23 9 -23 8 0 15 4 15 9 0 13 -16 22 -24 14z"/>
<path d="M4322 2058 c6 -18 28 -21 28 -4 0 9 -7 16 -16 16 -9 0 -14 -5 -12
-12z"/>
<path d="M3900 2040 c0 -13 5 -20 13 -17 6 2 12 10 12 17 0 7 -6 15 -12 18 -8
2 -13 -5 -13 -18z"/>
<path d="M3980 2044 c0 -8 5 -12 10 -9 6 3 10 10 10 16 0 5 -4 9 -10 9 -5 0
-10 -7 -10 -16z"/>
<path d="M3670 2031 c0 -6 5 -13 10 -16 6 -3 10 1 10 9 0 9 -4 16 -10 16 -5 0
-10 -4 -10 -9z"/>
<path d="M3600 2011 c0 -6 5 -13 10 -16 6 -3 10 1 10 9 0 9 -4 16 -10 16 -5 0
-10 -4 -10 -9z"/>
<path d="M3982 2008 c6 -18 28 -21 28 -4 0 9 -7 16 -16 16 -9 0 -14 -5 -12
-12z"/>
<path d="M4057 2007 c-3 -8 -1 -20 4 -28 11 -19 34 3 26 25 -8 20 -23 21 -30
3z"/>
<path d="M3672 1991 c2 -7 7 -12 11 -12 12 1 9 15 -3 20 -7 2 -11 -2 -8 -8z"/>
<path d="M3715 1990 c-8 -13 4 -32 16 -25 12 8 12 35 0 35 -6 0 -13 -4 -16
-10z"/>
<path d="M4276 1992 c-3 -6 -1 -14 5 -17 15 -10 25 3 12 16 -7 7 -13 7 -17 1z"/>
<path d="M4206 1983 c-11 -11 -6 -23 9 -23 8 0 15 4 15 9 0 13 -16 22 -24 14z"/>
<path d="M3860 1960 c-13 -8 -13 -11 3 -27 16 -16 17 -16 17 10 0 30 0 30 -20
17z"/>
<path d="M4100 1920 c0 -5 7 -10 16 -10 8 0 12 5 9 10 -3 6 -10 10 -16 10 -5
0 -9 -4 -9 -10z"/>
<path d="M3850 1906 c0 -9 5 -16 10 -16 6 0 10 4 10 9 0 6 -4 13 -10 16 -5 3
-10 -1 -10 -9z"/>
<path d="M4070 1905 c0 -8 5 -15 10 -15 6 0 10 7 10 15 0 8 -4 15 -10 15 -5 0
-10 -7 -10 -15z"/>
<path d="M3410 1854 c0 -8 5 -12 10 -9 6 3 10 10 10 16 0 5 -4 9 -10 9 -5 0
-10 -7 -10 -16z"/>
<path d="M3310 1825 c0 -8 7 -15 15 -15 8 0 15 7 15 15 0 8 -7 15 -15 15 -8 0
-15 -7 -15 -15z"/>
<path d="M4098 1825 c-9 -9 16 -55 30 -55 6 0 12 -7 12 -16 0 -9 6 -14 13 -11
22 7 13 41 -13 47 -14 3 -25 11 -25 17 0 14 -10 25 -17 18z"/>
<path d="M3365 1809 c-10 -15 3 -25 16 -12 7 7 7 13 1 17 -6 3 -14 1 -17 -5z"/>
<path d="M3373 1755 c5 -16 37 -18 37 -3 0 8 -9 14 -20 14 -11 0 -19 -5 -17
-11z"/>
<path d="M4220 1716 c0 -8 -3 -21 -6 -30 -4 -10 -1 -16 8 -16 8 0 23 -8 34
-18 27 -25 50 -32 63 -19 22 22 12 39 -21 35 -29 -3 -35 1 -47 30 -15 33 -31
43 -31 18z"/>
<path d="M4376 1578 c-9 -34 -8 -38 9 -38 18 0 20 16 3 23 -10 4 -10 6 0 6 6
1 12 8 12 16 0 23 -17 18 -24 -7z"/>
<path d="M4180 1540 c0 -5 5 -10 10 -10 6 0 10 5 10 10 0 6 -4 10 -10 10 -5 0
-10 -4 -10 -10z"/>
<path d="M4446 1531 c-4 -5 -2 -12 3 -15 5 -4 12 -2 15 3 4 5 2 12 -3 15 -5 4
-12 2 -15 -3z"/>
<path d="M4372 1508 c7 -20 48 -23 48 -4 0 11 -9 16 -26 16 -16 0 -24 -5 -22
-12z"/>
<path d="M3176 1871 c-4 -6 -3 -19 3 -28 9 -17 10 -17 17 0 8 21 -10 45 -20
28z"/>
</g>
</svg>
